<svg width="34" height="35" viewBox="0 0 34 35" fill="none" xmlns="http://www.w3.org/2000/svg">
<rect y="0.625" width="34" height="34" rx="17" fill="url(#paint0_linear_731_3217)"/>
<path d="M13.52 18.625H9.98V22.125H7.84V18.625H4.3V16.625H7.84V13.125H9.98V16.625H13.52V18.625ZM21.2463 16.405C22.5396 16.565 23.5263 17.005 24.2063 17.725C24.8863 18.445 25.2263 19.345 25.2263 20.425C25.2263 21.2383 25.0196 21.9783 24.6063 22.645C24.1929 23.3117 23.5663 23.845 22.7263 24.245C21.8996 24.6317 20.8863 24.825 19.6862 24.825C18.6863 24.825 17.7196 24.685 16.7863 24.405C15.8663 24.1117 15.0796 23.7117 14.4263 23.205L15.5463 21.185C16.0529 21.6117 16.6663 21.9517 17.3863 22.205C18.1196 22.445 18.8729 22.565 19.6463 22.565C20.5663 22.565 21.2863 22.3783 21.8063 22.005C22.3396 21.6183 22.6063 21.0983 22.6063 20.445C22.6063 19.7917 22.3529 19.285 21.8463 18.925C21.3529 18.5517 20.5929 18.365 19.5663 18.365H18.2863V16.585L21.4663 12.805H15.1063V10.625H24.6463V12.365L21.2463 16.405Z" fill="white"/>
<defs>
<linearGradient id="paint0_linear_731_3217" x1="19.6759" y1="-2.98106" x2="-4.58073" y2="3.27261" gradientUnits="userSpaceOnUse">
<stop stop-color="#F9A811"/>
<stop offset="1" stop-color="#B97900"/>
</linearGradient>
</defs>
</svg>
