<svg width="35" height="35" viewBox="0 0 35 35" fill="none" xmlns="http://www.w3.org/2000/svg">
<g clip-path="url(#clip0_1444_23557)">
<path d="M17.4999 1.94444C14.4233 1.94444 11.4158 2.85676 8.85769 4.56603C6.2996 6.27529 4.3058 8.70474 3.12844 11.5471C1.95108 14.3896 1.64302 17.5173 2.24324 20.5347C2.84345 23.5522 4.32498 26.324 6.50046 28.4994C8.67594 30.6749 11.4477 32.1564 14.4652 32.7567C17.4826 33.3569 20.6103 33.0488 23.4528 31.8715C26.2952 30.6941 28.7246 28.7003 30.4339 26.1422C32.1431 23.5841 33.0555 20.5766 33.0555 17.5C33.0555 13.3744 31.4166 9.41779 28.4993 6.50056C25.5821 3.58333 21.6255 1.94444 17.4999 1.94444ZM17.4999 31.1111C14.8079 31.1111 12.1763 30.3128 9.93797 28.8172C7.69963 27.3216 5.95506 25.1959 4.92487 22.7087C3.89468 20.2216 3.62513 17.4849 4.15032 14.8446C4.67551 12.2043 5.97184 9.77904 7.87539 7.87549C9.77894 5.97194 12.2042 4.67561 14.8445 4.15042C17.4848 3.62523 20.2215 3.89478 22.7086 4.92497C25.1958 5.95516 27.3215 7.69973 28.8171 9.93807C30.3127 12.1764 31.111 14.808 31.111 17.5C31.111 21.1099 29.677 24.5719 27.1244 27.1245C24.5718 29.6771 21.1098 31.1111 17.4999 31.1111Z" fill="#F2CF8D"/>
<path d="M18.3944 17.8889V10.4514C18.3944 10.1935 18.292 9.94624 18.1096 9.76391C17.9273 9.58159 17.68 9.47916 17.4222 9.47916C17.1643 9.47916 16.917 9.58159 16.7347 9.76391C16.5524 9.94624 16.45 10.1935 16.45 10.4514V18.9292L22.1861 22.818C22.2917 22.8975 22.4125 22.9546 22.541 22.9858C22.6694 23.017 22.8029 23.0217 22.9333 22.9996C23.0636 22.9774 23.1881 22.9289 23.2991 22.857C23.41 22.7852 23.5052 22.6914 23.5787 22.5815C23.6521 22.4716 23.7024 22.3478 23.7265 22.2178C23.7505 22.0878 23.7478 21.9543 23.7184 21.8253C23.6891 21.6964 23.6338 21.5748 23.5559 21.468C23.4779 21.3612 23.379 21.2714 23.2652 21.2042L18.3944 17.8889Z" fill="#F2CF8D"/>
<path d="M7.77775 17.4417C7.76885 15.6927 8.23479 13.9741 9.12586 12.4691C10.0169 10.9641 11.2997 9.72909 12.8375 8.89584C14.3753 8.06259 16.1104 7.6623 17.8578 7.73763C19.6051 7.81297 21.2993 8.36111 22.7597 9.32362L23.5861 8.00139C22.1989 7.09275 20.6278 6.50261 18.9855 6.27336C17.3431 6.04411 15.6704 6.18143 14.0875 6.67548C12.5046 7.16952 11.0507 8.00801 9.83033 9.13072C8.60997 10.2534 7.65341 11.6325 7.02936 13.1688C6.40532 14.7052 6.12928 16.3606 6.22108 18.0163C6.31288 19.672 6.77024 21.2869 7.5603 22.7448C8.35036 24.2027 9.45352 25.4676 10.7905 26.4485C12.1275 27.4294 13.6652 28.102 15.293 28.4181L15.5555 26.9306C13.3661 26.4837 11.3974 25.2962 9.98081 23.5679C8.56423 21.8397 7.78623 19.6763 7.77775 17.4417Z" fill="#F2CF8D"/>
</g>
<defs>
<clipPath id="clip0_1444_23557">
<rect width="35" height="35" fill="white"/>
</clipPath>
</defs>
</svg>
