<svg width="35" height="35" viewBox="0 0 35 35" fill="none" xmlns="http://www.w3.org/2000/svg">
<path opacity="0.4" d="M17.5001 32.0833C25.5545 32.0833 32.0834 25.5544 32.0834 17.5C32.0834 9.44561 25.5545 2.91666 17.5001 2.91666C9.44571 2.91666 2.91675 9.44561 2.91675 17.5C2.91675 25.5544 9.44571 32.0833 17.5001 32.0833Z" fill="white"/>
<path d="M19.0457 17.5L22.3999 14.1458C22.8228 13.7229 22.8228 13.0229 22.3999 12.6C22.1941 12.3966 21.9164 12.2825 21.627 12.2825C21.3376 12.2825 21.0599 12.3966 20.8541 12.6L17.4999 15.9542L14.1457 12.6C13.9399 12.3966 13.6622 12.2825 13.3728 12.2825C13.0834 12.2825 12.8057 12.3966 12.5999 12.6C12.177 13.0229 12.177 13.7229 12.5999 14.1458L15.9541 17.5L12.5999 20.8542C12.177 21.2771 12.177 21.9771 12.5999 22.4C12.8187 22.6188 13.0957 22.7208 13.3728 22.7208C13.6499 22.7208 13.927 22.6188 14.1457 22.4L17.4999 19.0458L20.8541 22.4C21.0728 22.6188 21.3499 22.7208 21.627 22.7208C21.9041 22.7208 22.1812 22.6188 22.3999 22.4C22.8228 21.9771 22.8228 21.2771 22.3999 20.8542L19.0457 17.5Z" fill="white"/>
</svg>
