<svg width="107" height="79" viewBox="0 0 107 79" fill="none" xmlns="http://www.w3.org/2000/svg">
<path opacity="0.5" d="M95.1022 78.567H12.1582C5.73069 78.567 0.520508 73.3541 0.520508 66.9232V11.8108C0.520508 5.37991 5.73069 0.166992 12.1582 0.166992H95.1022C101.53 0.166992 106.74 5.37991 106.74 11.8108V66.9226C106.74 73.3535 101.53 78.567 95.1022 78.567ZM64.6145 34.1512L48.2094 53.0219C47.1398 54.2523 45.2408 54.2857 44.1282 53.0933L35.3051 43.635C34.2191 42.4708 32.3744 42.4708 31.2885 43.635L16.146 59.8686C14.5068 61.6253 15.7525 64.4923 18.1543 64.4923H38.238H54.7626H89.1072C91.4638 64.4923 92.7264 61.7188 91.1801 59.94L68.7608 34.1507C67.6646 32.8914 65.7095 32.8914 64.6145 34.1512ZM42.3775 17.4888C38.0393 17.4888 34.5232 21.0073 34.5232 25.3473C34.5232 29.6872 38.0398 33.2058 42.3775 33.2058C46.7152 33.2058 50.2318 29.6872 50.2318 25.3473C50.2318 21.0073 46.7152 17.4888 42.3775 17.4888Z" fill="white"/>
</svg>
