<svg width="24" height="25" viewBox="0 0 24 25" fill="none" xmlns="http://www.w3.org/2000/svg">
<path d="M21.0304 3.59498C22.4279 4.99244 22.4279 7.25817 21.0304 8.65564L18.386 11.2995C17.8921 11.0543 17.3626 10.8702 16.8073 10.7568L17.9393 9.62488L15.0003 6.68588L5.0621 16.624C4.96981 16.7162 4.9032 16.831 4.86886 16.9569L3.81901 20.8064L7.66845 19.7565C7.79437 19.7222 7.90915 19.6556 8.00144 19.5633L9.13159 18.4325C9.24502 18.9881 9.42932 19.5178 9.67463 20.0119L9.0621 20.624C8.78522 20.9008 8.44089 21.1007 8.06312 21.2037L2.94743 22.5989C2.38756 22.7516 1.87383 22.2378 2.02652 21.678L3.42171 16.5623C3.52474 16.1845 3.72456 15.8402 4.00144 15.5633L15.9698 3.59498C17.3672 2.19751 19.633 2.19751 21.0304 3.59498V3.59498ZM15.5001 11.6253C15.7932 11.6253 16.0807 11.6498 16.3609 11.697L16.5342 12.4131C16.7932 13.4869 17.8736 14.1474 18.9474 13.8884L19.0452 13.8622L19.6463 13.6833C20.0088 14.1503 20.2992 14.6799 20.4999 15.2538L20.0527 15.6841C19.2986 16.4097 19.237 17.5842 19.8838 18.3826L20.0252 18.5395L20.4999 18.9968C20.2994 19.5703 20.0092 20.0995 19.647 20.5663L19.0452 20.3884C17.9859 20.0754 16.8734 20.6804 16.5604 21.7397L16.5342 21.8375L16.3609 22.5535C16.0807 22.6008 15.7932 22.6253 15.5001 22.6253C15.2067 22.6253 14.9189 22.6007 14.6384 22.5534L14.466 21.8375C14.207 20.7637 13.1266 20.1032 12.0528 20.3622L11.955 20.3884L11.3532 20.5663C10.991 20.0995 10.7008 19.5703 10.5003 18.9968L10.9475 18.5665C11.7435 17.8006 11.7678 16.5345 11.002 15.7386L10.9475 15.6841L10.5003 15.2538C10.7008 14.6803 10.991 14.1511 11.3532 13.6843L11.955 13.8622C13.0143 14.1752 14.1268 13.5702 14.4398 12.5109L14.466 12.4131L14.6384 11.6972C14.9189 11.6499 15.2067 11.6253 15.5001 11.6253V11.6253ZM15.5001 15.6253C14.6995 15.6253 14.0504 16.2969 14.0504 17.1253C14.0504 17.9537 14.6995 18.6253 15.5001 18.6253C16.3007 18.6253 16.9498 17.9537 16.9498 17.1253C16.9498 16.2969 16.3007 15.6253 15.5001 15.6253ZM17.0304 4.65564L16.0603 5.62488L18.9993 8.56488L19.9698 7.59498C20.7814 6.7833 20.7814 5.46731 19.9698 4.65564C19.1581 3.84396 17.8421 3.84396 17.0304 4.65564V4.65564Z" fill="white"/>
</svg>
