<svg width="113" height="70" viewBox="0 0 113 70" fill="none" xmlns="http://www.w3.org/2000/svg">
<path d="M58.1667 20C55.8655 20 54 22.0987 54 24.6875C54 29.375 59.8333 33.125 61.5 35C63.1667 33.125 69 29.375 69 24.6875C69 22.0987 67.1345 20 64.8333 20C63.467 20 62.2598 20.732 61.5 21.875C60.7402 20.732 59.533 20 58.1667 20ZM58.1667 20.9375C59.2684 20.9375 60.2242 21.5218 60.8327 22.4371L61.5 23.4406L62.1673 22.4371C62.7758 21.5218 63.7316 20.9375 64.8333 20.9375C66.6841 20.9375 68.1667 22.6053 68.1667 24.6875C68.1667 26.5937 66.9063 28.5251 65.3053 30.2136C63.9191 31.6757 62.5261 32.774 61.5 33.7842C60.4739 32.774 59.0809 31.6757 57.6947 30.2136C56.0937 28.5251 54.8333 26.5937 54.8333 24.6875C54.8333 22.6053 56.3159 20.9375 58.1667 20.9375Z" fill="white"/>
<path d="M53.12 21H50.06H47M56 34H47M51.68 27.5H47" stroke="white" stroke-width="1.5" stroke-linecap="round" stroke-linejoin="round"/>
<path d="M32.3443 44.408V46.964H36.4003V48.284H32.3443V51.5H30.7843V43.1H36.9163V44.408H32.3443ZM40.5297 45.02C41.4737 45.02 42.1937 45.248 42.6897 45.704C43.1937 46.152 43.4457 46.832 43.4457 47.744V51.5H42.0297V50.72C41.8457 51 41.5817 51.216 41.2377 51.368C40.9017 51.512 40.4937 51.584 40.0137 51.584C39.5337 51.584 39.1137 51.504 38.7537 51.344C38.3937 51.176 38.1137 50.948 37.9137 50.66C37.7217 50.364 37.6257 50.032 37.6257 49.664C37.6257 49.088 37.8377 48.628 38.2617 48.284C38.6937 47.932 39.3697 47.756 40.2897 47.756H41.9457V47.66C41.9457 47.212 41.8097 46.868 41.5377 46.628C41.2737 46.388 40.8777 46.268 40.3497 46.268C39.9897 46.268 39.6337 46.324 39.2817 46.436C38.9377 46.548 38.6457 46.704 38.4057 46.904L37.8177 45.812C38.1537 45.556 38.5577 45.36 39.0297 45.224C39.5017 45.088 40.0017 45.02 40.5297 45.02ZM40.3257 50.492C40.7017 50.492 41.0337 50.408 41.3217 50.24C41.6177 50.064 41.8257 49.816 41.9457 49.496V48.752H40.3977C39.5337 48.752 39.1017 49.036 39.1017 49.604C39.1017 49.876 39.2097 50.092 39.4257 50.252C39.6417 50.412 39.9417 50.492 40.3257 50.492ZM51.2535 45.092L48.5055 51.5H46.9575L44.2095 45.092H45.7695L47.7615 49.844L49.8135 45.092H51.2535ZM54.8953 51.584C54.2473 51.584 53.6633 51.444 53.1433 51.164C52.6233 50.884 52.2153 50.496 51.9193 50C51.6313 49.496 51.4873 48.928 51.4873 48.296C51.4873 47.664 51.6313 47.1 51.9193 46.604C52.2153 46.108 52.6233 45.72 53.1433 45.44C53.6633 45.16 54.2473 45.02 54.8953 45.02C55.5513 45.02 56.1393 45.16 56.6593 45.44C57.1793 45.72 57.5833 46.108 57.8713 46.604C58.1673 47.1 58.3153 47.664 58.3153 48.296C58.3153 48.928 58.1673 49.496 57.8713 50C57.5833 50.496 57.1793 50.884 56.6593 51.164C56.1393 51.444 55.5513 51.584 54.8953 51.584ZM54.8953 50.3C55.4473 50.3 55.9033 50.116 56.2633 49.748C56.6233 49.38 56.8033 48.896 56.8033 48.296C56.8033 47.696 56.6233 47.212 56.2633 46.844C55.9033 46.476 55.4473 46.292 54.8953 46.292C54.3433 46.292 53.8873 46.476 53.5273 46.844C53.1753 47.212 52.9993 47.696 52.9993 48.296C52.9993 48.896 53.1753 49.38 53.5273 49.748C53.8873 50.116 54.3433 50.3 54.8953 50.3ZM61.1776 46.028C61.6096 45.356 62.3696 45.02 63.4576 45.02V46.448C63.3296 46.424 63.2136 46.412 63.1096 46.412C62.5256 46.412 62.0696 46.584 61.7416 46.928C61.4136 47.264 61.2496 47.752 61.2496 48.392V51.5H59.7496V45.092H61.1776V46.028ZM64.7301 45.092H66.2301V51.5H64.7301V45.092ZM65.4861 44.036C65.2141 44.036 64.9861 43.952 64.8021 43.784C64.6181 43.608 64.5261 43.392 64.5261 43.136C64.5261 42.88 64.6181 42.668 64.8021 42.5C64.9861 42.324 65.2141 42.236 65.4861 42.236C65.7581 42.236 65.9861 42.32 66.1701 42.488C66.3541 42.648 66.4461 42.852 66.4461 43.1C66.4461 43.364 66.3541 43.588 66.1701 43.772C65.9941 43.948 65.7661 44.036 65.4861 44.036ZM72.0508 51.152C71.8748 51.296 71.6588 51.404 71.4028 51.476C71.1548 51.548 70.8908 51.584 70.6108 51.584C69.9068 51.584 69.3628 51.4 68.9788 51.032C68.5948 50.664 68.4028 50.128 68.4028 49.424V46.34H67.3468V45.14H68.4028V43.676H69.9028V45.14H71.6188V46.34H69.9028V49.388C69.9028 49.7 69.9788 49.94 70.1308 50.108C70.2828 50.268 70.5028 50.348 70.7908 50.348C71.1268 50.348 71.4068 50.26 71.6308 50.084L72.0508 51.152ZM75.9538 51.584C75.3058 51.584 74.7218 51.444 74.2018 51.164C73.6818 50.884 73.2738 50.496 72.9778 50C72.6898 49.496 72.5458 48.928 72.5458 48.296C72.5458 47.664 72.6898 47.1 72.9778 46.604C73.2738 46.108 73.6818 45.72 74.2018 45.44C74.7218 45.16 75.3058 45.02 75.9538 45.02C76.6098 45.02 77.1978 45.16 77.7178 45.44C78.2378 45.72 78.6418 46.108 78.9298 46.604C79.2258 47.1 79.3738 47.664 79.3738 48.296C79.3738 48.928 79.2258 49.496 78.9298 50C78.6418 50.496 78.2378 50.884 77.7178 51.164C77.1978 51.444 76.6098 51.584 75.9538 51.584ZM75.9538 50.3C76.5058 50.3 76.9618 50.116 77.3218 49.748C77.6818 49.38 77.8618 48.896 77.8618 48.296C77.8618 47.696 77.6818 47.212 77.3218 46.844C76.9618 46.476 76.5058 46.292 75.9538 46.292C75.4018 46.292 74.9458 46.476 74.5858 46.844C74.2338 47.212 74.0578 47.696 74.0578 48.296C74.0578 48.896 74.2338 49.38 74.5858 49.748C74.9458 50.116 75.4018 50.3 75.9538 50.3ZM82.7882 51.584C82.2682 51.584 81.7602 51.516 81.2642 51.38C80.7682 51.244 80.3722 51.072 80.0762 50.864L80.6522 49.724C80.9402 49.916 81.2842 50.072 81.6842 50.192C82.0922 50.304 82.4922 50.36 82.8842 50.36C83.7802 50.36 84.2282 50.124 84.2282 49.652C84.2282 49.428 84.1122 49.272 83.8802 49.184C83.6562 49.096 83.2922 49.012 82.7882 48.932C82.2602 48.852 81.8282 48.76 81.4922 48.656C81.1642 48.552 80.8762 48.372 80.6282 48.116C80.3882 47.852 80.2682 47.488 80.2682 47.024C80.2682 46.416 80.5202 45.932 81.0242 45.572C81.5362 45.204 82.2242 45.02 83.0882 45.02C83.5282 45.02 83.9682 45.072 84.4082 45.176C84.8482 45.272 85.2082 45.404 85.4882 45.572L84.9122 46.712C84.3682 46.392 83.7562 46.232 83.0762 46.232C82.6362 46.232 82.3002 46.3 82.0682 46.436C81.8442 46.564 81.7322 46.736 81.7322 46.952C81.7322 47.192 81.8522 47.364 82.0922 47.468C82.3402 47.564 82.7202 47.656 83.2322 47.744C83.7442 47.824 84.1642 47.916 84.4922 48.02C84.8202 48.124 85.1002 48.3 85.3322 48.548C85.5722 48.796 85.6922 49.148 85.6922 49.604C85.6922 50.204 85.4322 50.684 84.9122 51.044C84.3922 51.404 83.6842 51.584 82.7882 51.584Z" fill="white"/>
</svg>
