<svg width="113" height="70" viewBox="0 0 113 70" fill="none" xmlns="http://www.w3.org/2000/svg">
<path d="M58.1111 18C54.736 18 52 21.078 52 24.875C52 31.75 60.5556 37.25 63 40C65.4444 37.25 74 31.75 74 24.875C74 21.078 71.264 18 67.8889 18C65.8849 18 64.1144 19.0736 63 20.75C61.8856 19.0736 60.1151 18 58.1111 18ZM58.1111 19.375C59.7271 19.375 61.1288 20.2319 62.0213 21.5745L63 23.0461L63.9787 21.5745C64.8712 20.2319 66.273 19.375 67.8889 19.375C70.6034 19.375 72.7778 21.8212 72.7778 24.875C72.7778 27.6708 70.9292 30.5035 68.5812 32.98C66.548 35.1244 64.505 36.7352 63 38.2168C61.495 36.7352 59.452 35.1244 57.4188 32.98C55.0708 30.5035 53.2222 27.6708 53.2222 24.875C53.2222 21.8212 55.3966 19.375 58.1111 19.375Z" fill="#F2CF8D"/>
<path d="M50.5 19H46.25H42M54.5 38.8333H42M48.5 28.9167H42" stroke="#F2CF8D" stroke-width="1.5" stroke-linecap="round" stroke-linejoin="round"/>
<path d="M32.3443 49.408V51.964H36.4003V53.284H32.3443V56.5H30.7843V48.1H36.9163V49.408H32.3443ZM40.5297 50.02C41.4737 50.02 42.1937 50.248 42.6897 50.704C43.1937 51.152 43.4457 51.832 43.4457 52.744V56.5H42.0297V55.72C41.8457 56 41.5817 56.216 41.2377 56.368C40.9017 56.512 40.4937 56.584 40.0137 56.584C39.5337 56.584 39.1137 56.504 38.7537 56.344C38.3937 56.176 38.1137 55.948 37.9137 55.66C37.7217 55.364 37.6257 55.032 37.6257 54.664C37.6257 54.088 37.8377 53.628 38.2617 53.284C38.6937 52.932 39.3697 52.756 40.2897 52.756H41.9457V52.66C41.9457 52.212 41.8097 51.868 41.5377 51.628C41.2737 51.388 40.8777 51.268 40.3497 51.268C39.9897 51.268 39.6337 51.324 39.2817 51.436C38.9377 51.548 38.6457 51.704 38.4057 51.904L37.8177 50.812C38.1537 50.556 38.5577 50.36 39.0297 50.224C39.5017 50.088 40.0017 50.02 40.5297 50.02ZM40.3257 55.492C40.7017 55.492 41.0337 55.408 41.3217 55.24C41.6177 55.064 41.8257 54.816 41.9457 54.496V53.752H40.3977C39.5337 53.752 39.1017 54.036 39.1017 54.604C39.1017 54.876 39.2097 55.092 39.4257 55.252C39.6417 55.412 39.9417 55.492 40.3257 55.492ZM51.2535 50.092L48.5055 56.5H46.9575L44.2095 50.092H45.7695L47.7615 54.844L49.8135 50.092H51.2535ZM54.8953 56.584C54.2473 56.584 53.6633 56.444 53.1433 56.164C52.6233 55.884 52.2153 55.496 51.9193 55C51.6313 54.496 51.4873 53.928 51.4873 53.296C51.4873 52.664 51.6313 52.1 51.9193 51.604C52.2153 51.108 52.6233 50.72 53.1433 50.44C53.6633 50.16 54.2473 50.02 54.8953 50.02C55.5513 50.02 56.1393 50.16 56.6593 50.44C57.1793 50.72 57.5833 51.108 57.8713 51.604C58.1673 52.1 58.3153 52.664 58.3153 53.296C58.3153 53.928 58.1673 54.496 57.8713 55C57.5833 55.496 57.1793 55.884 56.6593 56.164C56.1393 56.444 55.5513 56.584 54.8953 56.584ZM54.8953 55.3C55.4473 55.3 55.9033 55.116 56.2633 54.748C56.6233 54.38 56.8033 53.896 56.8033 53.296C56.8033 52.696 56.6233 52.212 56.2633 51.844C55.9033 51.476 55.4473 51.292 54.8953 51.292C54.3433 51.292 53.8873 51.476 53.5273 51.844C53.1753 52.212 52.9993 52.696 52.9993 53.296C52.9993 53.896 53.1753 54.38 53.5273 54.748C53.8873 55.116 54.3433 55.3 54.8953 55.3ZM61.1776 51.028C61.6096 50.356 62.3696 50.02 63.4576 50.02V51.448C63.3296 51.424 63.2136 51.412 63.1096 51.412C62.5256 51.412 62.0696 51.584 61.7416 51.928C61.4136 52.264 61.2496 52.752 61.2496 53.392V56.5H59.7496V50.092H61.1776V51.028ZM64.7301 50.092H66.2301V56.5H64.7301V50.092ZM65.4861 49.036C65.2141 49.036 64.9861 48.952 64.8021 48.784C64.6181 48.608 64.5261 48.392 64.5261 48.136C64.5261 47.88 64.6181 47.668 64.8021 47.5C64.9861 47.324 65.2141 47.236 65.4861 47.236C65.7581 47.236 65.9861 47.32 66.1701 47.488C66.3541 47.648 66.4461 47.852 66.4461 48.1C66.4461 48.364 66.3541 48.588 66.1701 48.772C65.9941 48.948 65.7661 49.036 65.4861 49.036ZM72.0508 56.152C71.8748 56.296 71.6588 56.404 71.4028 56.476C71.1548 56.548 70.8908 56.584 70.6108 56.584C69.9068 56.584 69.3628 56.4 68.9788 56.032C68.5948 55.664 68.4028 55.128 68.4028 54.424V51.34H67.3468V50.14H68.4028V48.676H69.9028V50.14H71.6188V51.34H69.9028V54.388C69.9028 54.7 69.9788 54.94 70.1308 55.108C70.2828 55.268 70.5028 55.348 70.7908 55.348C71.1268 55.348 71.4068 55.26 71.6308 55.084L72.0508 56.152ZM75.9538 56.584C75.3058 56.584 74.7218 56.444 74.2018 56.164C73.6818 55.884 73.2738 55.496 72.9778 55C72.6898 54.496 72.5458 53.928 72.5458 53.296C72.5458 52.664 72.6898 52.1 72.9778 51.604C73.2738 51.108 73.6818 50.72 74.2018 50.44C74.7218 50.16 75.3058 50.02 75.9538 50.02C76.6098 50.02 77.1978 50.16 77.7178 50.44C78.2378 50.72 78.6418 51.108 78.9298 51.604C79.2258 52.1 79.3738 52.664 79.3738 53.296C79.3738 53.928 79.2258 54.496 78.9298 55C78.6418 55.496 78.2378 55.884 77.7178 56.164C77.1978 56.444 76.6098 56.584 75.9538 56.584ZM75.9538 55.3C76.5058 55.3 76.9618 55.116 77.3218 54.748C77.6818 54.38 77.8618 53.896 77.8618 53.296C77.8618 52.696 77.6818 52.212 77.3218 51.844C76.9618 51.476 76.5058 51.292 75.9538 51.292C75.4018 51.292 74.9458 51.476 74.5858 51.844C74.2338 52.212 74.0578 52.696 74.0578 53.296C74.0578 53.896 74.2338 54.38 74.5858 54.748C74.9458 55.116 75.4018 55.3 75.9538 55.3ZM82.7882 56.584C82.2682 56.584 81.7602 56.516 81.2642 56.38C80.7682 56.244 80.3722 56.072 80.0762 55.864L80.6522 54.724C80.9402 54.916 81.2842 55.072 81.6842 55.192C82.0922 55.304 82.4922 55.36 82.8842 55.36C83.7802 55.36 84.2282 55.124 84.2282 54.652C84.2282 54.428 84.1122 54.272 83.8802 54.184C83.6562 54.096 83.2922 54.012 82.7882 53.932C82.2602 53.852 81.8282 53.76 81.4922 53.656C81.1642 53.552 80.8762 53.372 80.6282 53.116C80.3882 52.852 80.2682 52.488 80.2682 52.024C80.2682 51.416 80.5202 50.932 81.0242 50.572C81.5362 50.204 82.2242 50.02 83.0882 50.02C83.5282 50.02 83.9682 50.072 84.4082 50.176C84.8482 50.272 85.2082 50.404 85.4882 50.572L84.9122 51.712C84.3682 51.392 83.7562 51.232 83.0762 51.232C82.6362 51.232 82.3002 51.3 82.0682 51.436C81.8442 51.564 81.7322 51.736 81.7322 51.952C81.7322 52.192 81.8522 52.364 82.0922 52.468C82.3402 52.564 82.7202 52.656 83.2322 52.744C83.7442 52.824 84.1642 52.916 84.4922 53.02C84.8202 53.124 85.1002 53.3 85.3322 53.548C85.5722 53.796 85.6922 54.148 85.6922 54.604C85.6922 55.204 85.4322 55.684 84.9122 56.044C84.3922 56.404 83.6842 56.584 82.7882 56.584Z" fill="#F2CF8D"/>
<line x1="110.5" y1="70" x2="110.5" y2="-1.09278e-07" stroke="#F2CF8D" stroke-width="5"/>
</svg>
