<svg width="35" height="25" viewBox="0 0 35 25" fill="none" xmlns="http://www.w3.org/2000/svg">
<path d="M17.6667 1.23926C13.9848 1.23926 11 4.52867 11 8.58634C11 15.9334 20.3333 21.8111 23 24.7499C25.6667 21.8111 35 15.9334 35 8.58634C35 4.52867 32.0152 1.23926 28.3333 1.23926C26.1472 1.23926 24.2157 2.38653 23 4.17809C21.7843 2.38653 19.8528 1.23926 17.6667 1.23926ZM17.6667 2.70867C19.4295 2.70867 20.9587 3.62442 21.9323 5.05917L23 6.6319L24.0677 5.05917C25.0413 3.62442 26.5705 2.70867 28.3333 2.70867C31.2946 2.70867 33.6667 5.3228 33.6667 8.58634C33.6667 11.5742 31.6501 14.6014 29.0885 17.2479C26.8705 19.5395 24.6418 21.2609 23 22.8443C21.3582 21.2609 19.1295 19.5395 16.9115 17.2479C14.35 14.6014 12.3333 11.5742 12.3333 8.58634C12.3333 5.3228 14.7054 2.70867 17.6667 2.70867Z" fill="white"/>
<path d="M28.0181 2.23242C25.7887 2.23242 23.853 3.58284 22.8701 5.56623C21.8872 3.58284 19.9515 2.23242 17.7221 2.23242C14.5001 2.23242 11.8877 5.05334 11.8877 8.53241C11.8877 17.0559 22.8701 22.9853 22.8701 22.9853C22.8701 22.9853 33.8525 17.0559 33.8525 8.53241C33.8525 5.05334 31.2401 2.23242 28.0181 2.23242Z" fill="white"/>
<path d="M9.5 2.75H5.25H1M13.5 22.5833H1M7.5 12.6667H1" stroke="white" stroke-width="1.5" stroke-linecap="round" stroke-linejoin="round"/>
</svg>
