<svg width="36" height="34" viewBox="0 0 36 34" fill="none" xmlns="http://www.w3.org/2000/svg">
<path d="M19.0344 5.5C15.5059 5.5 12.6455 8.71796 12.6455 12.6875C12.6455 19.875 21.59 25.625 24.1455 28.5C26.7011 25.625 35.6455 19.875 35.6455 12.6875C35.6455 8.71796 32.7851 5.5 29.2566 5.5C27.1616 5.5 25.3106 6.62236 24.1455 8.375C22.9804 6.62236 21.1294 5.5 19.0344 5.5ZM19.0344 6.9375C20.7238 6.9375 22.1892 7.83335 23.1223 9.23694L24.1455 10.7755L25.1687 9.23694C26.1018 7.83336 27.5672 6.9375 29.2566 6.9375C32.0945 6.9375 34.3677 9.49484 34.3677 12.6875C34.3677 15.6104 32.4351 18.5719 29.9804 21.1609C27.8547 23.4028 25.7189 25.0868 24.1455 26.6357C22.5721 25.0868 20.4363 23.4028 18.3107 21.1609C15.8559 18.5719 13.9233 15.6104 13.9233 12.6875C13.9233 9.49484 16.1965 6.9375 19.0344 6.9375Z" fill="#F2CF8D"/>
<path d="M11.5535 7.5H6.45352H1.35352M16.3535 26.5H1.35352M9.15352 17H1.35352" stroke="#F2CF8D" stroke-width="1.5" stroke-linecap="round" stroke-linejoin="round"/>
</svg>
