<svg width="35" height="34" viewBox="0 0 35 34" fill="none" xmlns="http://www.w3.org/2000/svg">
<path d="M17.2222 9C14.6142 9 12.5 11.3785 12.5 14.3125C12.5 19.625 19.1111 23.875 21 26C22.8889 23.875 29.5 19.625 29.5 14.3125C29.5 11.3785 27.3858 9 24.7778 9C23.2293 9 21.8612 9.82957 21 11.125C20.1389 9.82957 18.7707 9 17.2222 9ZM17.2222 10.0625C18.4709 10.0625 19.5541 10.7247 20.2437 11.7621L21 12.8993L21.7563 11.7621C22.446 10.7247 23.5291 10.0625 24.7778 10.0625C26.8754 10.0625 28.5556 11.9527 28.5556 14.3125C28.5556 16.4729 27.1271 18.6618 25.3127 20.5755C23.7416 22.2325 22.163 23.4772 21 24.6221C19.8371 23.4772 18.2584 22.2325 16.6873 20.5755C14.8729 18.6618 13.4444 16.4729 13.4444 14.3125C13.4444 11.9527 15.1246 10.0625 17.2222 10.0625Z" fill="white"/>
<path d="M11.3 11H7.9H4.5M14.5 24H4.5M9.7 17.5H4.5" stroke="white" stroke-width="1.5" stroke-linecap="round" stroke-linejoin="round"/>
</svg>
