<svg width="24" height="25" viewBox="0 0 24 25" fill="none" xmlns="http://www.w3.org/2000/svg">
<path d="M17 18.93H13L8.55 21.89C8.39982 21.9901 8.22528 22.0476 8.045 22.0563C7.86472 22.0649 7.68546 22.0245 7.52635 21.9393C7.36724 21.8541 7.23424 21.7273 7.14154 21.5725C7.04884 21.4176 6.99992 21.2405 7 21.06V18.93C4 18.93 2 16.93 2 13.93V7.92999C2 4.92999 4 2.92999 7 2.92999H17C20 2.92999 22 4.92999 22 7.92999V13.93C22 16.93 20 18.93 17 18.93Z" stroke="white" stroke-width="1.5" stroke-miterlimit="10" stroke-linecap="round" stroke-linejoin="round"/>
<path d="M11.9998 11.86V11.65C11.9998 10.97 12.4198 10.61 12.8398 10.32C13.2498 10.04 13.6598 9.67999 13.6598 9.01999C13.6598 8.09999 12.9198 7.35999 11.9998 7.35999C11.0798 7.35999 10.3398 8.09999 10.3398 9.01999M11.9948 14.25H12.0048" stroke="white" stroke-width="1.5" stroke-linecap="round" stroke-linejoin="round"/>
</svg>
