<svg width="25" height="25" viewBox="0 0 25 25" fill="none" xmlns="http://www.w3.org/2000/svg">
<path d="M16.9097 4.49999C18.8497 4.49999 20.4097 6.06999 20.4097 7.99999C20.4097 9.88999 18.9097 11.43 17.0397 11.5C16.9534 11.49 16.8661 11.49 16.7797 11.5M18.8397 20.5C19.5597 20.35 20.2397 20.06 20.7997 19.63C22.3597 18.46 22.3597 16.53 20.7997 15.36C20.2497 14.94 19.5797 14.66 18.8697 14.5M9.65973 11.37C9.55973 11.36 9.43973 11.36 9.32973 11.37C8.18193 11.331 7.09437 10.8468 6.29736 10.0199C5.50034 9.19307 5.05647 8.08844 5.05973 6.93999C5.05973 4.48999 7.03973 2.49999 9.49973 2.49999C10.676 2.47877 11.8124 2.92568 12.6592 3.7424C13.5059 4.55912 13.9935 5.67875 14.0147 6.85499C14.0359 8.03123 13.589 9.16771 12.7723 10.0144C11.9556 10.8612 10.836 11.3488 9.65973 11.37ZM4.65973 15.06C2.23973 16.68 2.23973 19.32 4.65973 20.93C7.40973 22.77 11.9197 22.77 14.6697 20.93C17.0897 19.31 17.0897 16.67 14.6697 15.06C11.9297 13.23 7.41973 13.23 4.65973 15.06V15.06Z" stroke="white" stroke-width="1.5" stroke-linecap="round" stroke-linejoin="round"/>
</svg>
