<svg width="24" height="25" viewBox="0 0 24 25" fill="none" xmlns="http://www.w3.org/2000/svg">
<path d="M21.6602 10.94L20.6802 15.12C19.8402 18.73 18.1802 20.19 15.0602 19.89C14.5602 19.85 14.0202 19.76 13.4402 19.62L11.7602 19.22C7.59018 18.23 6.30018 16.17 7.28018 11.99L8.26018 7.80001C8.46018 6.95001 8.70018 6.21001 9.00018 5.60001C10.1702 3.18001 12.1602 2.53001 15.5002 3.32001L17.1702 3.71001C21.3602 4.69001 22.6402 6.76001 21.6602 10.94V10.94Z" stroke="white" stroke-width="1.5" stroke-linecap="round" stroke-linejoin="round"/>
<path d="M12.6403 9.0301L17.4903 10.2601M11.6603 12.9001L14.5603 13.6401M15.0603 19.8901C14.4403 20.3101 13.6603 20.6601 12.7103 20.9701L11.1303 21.4901C7.16034 22.7701 5.07034 21.7001 3.78034 17.7301L2.50034 13.7801C1.22034 9.8101 2.28034 7.7101 6.25034 6.4301L7.83034 5.9101C8.24034 5.7801 8.63034 5.6701 9.00034 5.6001C8.70034 6.2101 8.46034 6.9501 8.26034 7.8001L7.28034 11.9901C6.30034 16.1701 7.59034 18.2301 11.7603 19.2201L13.4403 19.6201C14.0203 19.7601 14.5603 19.8501 15.0603 19.8901V19.8901Z" stroke="white" stroke-width="1.5" stroke-linecap="round" stroke-linejoin="round"/>
</svg>
