<svg width="34" height="34" viewBox="0 0 34 34" fill="none" xmlns="http://www.w3.org/2000/svg">
<rect width="34" height="34" rx="17" fill="url(#paint0_linear_701_2589)"/>
<g clip-path="url(#clip0_701_2589)">
<path d="M22.25 12.875H17.75V9.875H26C26.2983 9.87466 26.5842 9.75603 26.7951 9.54513C27.006 9.33422 27.1247 9.04827 27.125 8.75V5.75H25.625V8.375H17.375C17.0767 8.37533 16.7908 8.49397 16.5799 8.70487C16.369 8.91578 16.2503 9.20173 16.25 9.5V12.875H11.75C10.1593 12.8768 8.63417 13.5095 7.50935 14.6343C6.38452 15.7592 5.7518 17.2843 5.75 18.875V23.6072C5.75128 24.7387 6.20133 25.8235 7.00143 26.6236C7.80153 27.4237 8.88632 27.8737 10.0178 27.875H10.1022C10.728 27.8758 11.3464 27.7387 11.9131 27.4732C12.4799 27.2078 12.9812 26.8207 13.3813 26.3394L15.8516 23.375H18.131L20.5997 26.5843C21.1432 27.2907 21.8941 27.8092 22.7472 28.0671C23.6003 28.325 24.5128 28.3093 25.3565 28.0223C26.2003 27.7353 26.933 27.1914 27.4519 26.4668C27.9709 25.7422 28.2499 24.8734 28.25 23.9822V18.875C28.2482 17.2843 27.6155 15.7592 26.4907 14.6343C25.3658 13.5095 23.8407 12.8768 22.25 12.875ZM26.75 23.9822C26.75 24.5602 26.569 25.1237 26.2324 25.5937C25.8959 26.0636 25.4206 26.4164 24.8734 26.6025C24.3262 26.7886 23.7344 26.7988 23.1811 26.6315C22.6278 26.4642 22.1408 26.1278 21.7883 25.6697L18.8693 21.875H15.1487L12.2287 25.3791C11.9693 25.6912 11.6442 25.9422 11.2767 26.1144C10.9091 26.2865 10.5082 26.3755 10.1023 26.375H10.018C9.28412 26.3742 8.58055 26.0824 8.06163 25.5635C7.54271 25.0446 7.25082 24.341 7.25 23.6072V18.875C7.25134 17.6819 7.72588 16.5381 8.5695 15.6945C9.41312 14.8509 10.5569 14.3763 11.75 14.375H22.25C23.4431 14.3763 24.5869 14.8509 25.4305 15.6945C26.2741 16.5381 26.7487 17.6819 26.75 18.875V23.9822Z" fill="white"/>
<path d="M23.375 16.625H21.875V18.125H23.375V16.625Z" fill="white"/>
<path d="M23.375 20.375H21.875V21.875H23.375V20.375Z" fill="white"/>
<path d="M21.5 18.5H20V20H21.5V18.5Z" fill="white"/>
<path d="M25.25 18.5H23.75V20H25.25V18.5Z" fill="white"/>
<path d="M12.125 16.625H10.625V18.5H8.75V20H10.625V21.875H12.125V20H14V18.5H12.125V16.625Z" fill="white"/>
</g>
<defs>
<linearGradient id="paint0_linear_701_2589" x1="19.6759" y1="-3.60606" x2="-4.58073" y2="2.64761" gradientUnits="userSpaceOnUse">
<stop stop-color="#F9A811"/>
<stop offset="1" stop-color="#B97900"/>
</linearGradient>
<clipPath id="clip0_701_2589">
<rect width="24" height="24" fill="white" transform="translate(5 5)"/>
</clipPath>
</defs>
</svg>
