<svg width="113" height="70" viewBox="0 0 113 70" fill="none" xmlns="http://www.w3.org/2000/svg">
<path d="M54.0572 28.1516L49.7363 32.4724M49.7788 28.1941L54.0997 32.5149" stroke="#F2CF8D" stroke-width="1.5" stroke-miterlimit="10" stroke-linecap="round" stroke-linejoin="round"/>
<path d="M59.668 30.3333H59.6821M65.2496 30.3333H65.2638M62.4588 33.1383V33.11M62.4588 27.5567V27.5283" stroke="#F2CF8D" stroke-width="2" stroke-miterlimit="10" stroke-linecap="round" stroke-linejoin="round"/>
<path d="M58.9305 13.3334L58.9163 14.7642C58.9126 15.1375 58.7617 15.4942 58.4964 15.7568C58.2312 16.0194 57.873 16.1667 57.4997 16.1667H57.4572C56.678 16.1667 56.0547 16.8042 56.0547 17.5834C56.0547 18.3625 56.6922 19 57.4713 19H58.888M53.2497 41.6667H61.7497C68.833 41.6667 71.6663 38.8334 71.6663 31.75V28.9167C71.6663 21.8334 68.833 19 61.7497 19H53.2497C46.1663 19 43.333 21.8334 43.333 28.9167V31.75C43.333 38.8334 46.1663 41.6667 53.2497 41.6667Z" stroke="#F2CF8D" stroke-width="2" stroke-linecap="round" stroke-linejoin="round"/>
<path d="M38.2329 56.62C37.6969 56.62 37.2009 56.516 36.7449 56.308C36.2969 56.092 35.9289 55.792 35.6409 55.408L36.5289 54.34C36.9929 54.98 37.5489 55.3 38.1969 55.3C39.0689 55.3 39.5049 54.784 39.5049 53.752V49.408H36.5169V48.1H41.0649V53.668C41.0649 54.652 40.8249 55.392 40.3449 55.888C39.8649 56.376 39.1609 56.62 38.2329 56.62ZM49.313 50.092V56.5H47.885V55.684C47.645 55.972 47.345 56.196 46.985 56.356C46.625 56.508 46.237 56.584 45.821 56.584C44.965 56.584 44.289 56.348 43.793 55.876C43.305 55.396 43.061 54.688 43.061 53.752V50.092H44.561V53.548C44.561 54.124 44.689 54.556 44.945 54.844C45.209 55.124 45.581 55.264 46.061 55.264C46.597 55.264 47.021 55.1 47.333 54.772C47.653 54.436 47.813 53.956 47.813 53.332V50.092H49.313ZM57.301 53.332C57.301 53.436 57.293 53.584 57.277 53.776H52.249C52.337 54.248 52.565 54.624 52.933 54.904C53.309 55.176 53.773 55.312 54.325 55.312C55.029 55.312 55.609 55.08 56.065 54.616L56.869 55.54C56.581 55.884 56.217 56.144 55.777 56.32C55.337 56.496 54.841 56.584 54.289 56.584C53.585 56.584 52.965 56.444 52.429 56.164C51.893 55.884 51.477 55.496 51.181 55C50.893 54.496 50.749 53.928 50.749 53.296C50.749 52.672 50.889 52.112 51.169 51.616C51.457 51.112 51.853 50.72 52.357 50.44C52.861 50.16 53.429 50.02 54.061 50.02C54.685 50.02 55.241 50.16 55.729 50.44C56.225 50.712 56.609 51.1 56.881 51.604C57.161 52.1 57.301 52.676 57.301 53.332ZM54.061 51.22C53.581 51.22 53.173 51.364 52.837 51.652C52.509 51.932 52.309 52.308 52.237 52.78H55.873C55.809 52.316 55.613 51.94 55.285 51.652C54.957 51.364 54.549 51.22 54.061 51.22ZM65.1018 50.092V55.528C65.1018 57.784 63.9498 58.912 61.6458 58.912C61.0298 58.912 60.4458 58.832 59.8938 58.672C59.3418 58.52 58.8858 58.296 58.5258 58L59.1978 56.872C59.4778 57.104 59.8298 57.288 60.2538 57.424C60.6858 57.568 61.1218 57.64 61.5618 57.64C62.2658 57.64 62.7818 57.48 63.1098 57.16C63.4378 56.84 63.6018 56.352 63.6018 55.696V55.36C63.3458 55.64 63.0338 55.852 62.6658 55.996C62.2978 56.14 61.8938 56.212 61.4538 56.212C60.8458 56.212 60.2938 56.084 59.7978 55.828C59.3098 55.564 58.9218 55.196 58.6338 54.724C58.3538 54.252 58.2138 53.712 58.2138 53.104C58.2138 52.496 58.3538 51.96 58.6338 51.496C58.9218 51.024 59.3098 50.66 59.7978 50.404C60.2938 50.148 60.8458 50.02 61.4538 50.02C61.9178 50.02 62.3378 50.096 62.7138 50.248C63.0978 50.4 63.4178 50.632 63.6738 50.944V50.092H65.1018ZM61.6818 54.94C62.2498 54.94 62.7138 54.772 63.0738 54.436C63.4418 54.092 63.6258 53.648 63.6258 53.104C63.6258 52.568 63.4418 52.132 63.0738 51.796C62.7138 51.46 62.2498 51.292 61.6818 51.292C61.1058 51.292 60.6338 51.46 60.2658 51.796C59.9058 52.132 59.7258 52.568 59.7258 53.104C59.7258 53.648 59.9058 54.092 60.2658 54.436C60.6338 54.772 61.1058 54.94 61.6818 54.94ZM69.9538 56.584C69.3058 56.584 68.7218 56.444 68.2018 56.164C67.6818 55.884 67.2738 55.496 66.9778 55C66.6898 54.496 66.5458 53.928 66.5458 53.296C66.5458 52.664 66.6898 52.1 66.9778 51.604C67.2738 51.108 67.6818 50.72 68.2018 50.44C68.7218 50.16 69.3058 50.02 69.9538 50.02C70.6098 50.02 71.1978 50.16 71.7178 50.44C72.2378 50.72 72.6418 51.108 72.9298 51.604C73.2258 52.1 73.3738 52.664 73.3738 53.296C73.3738 53.928 73.2258 54.496 72.9298 55C72.6418 55.496 72.2378 55.884 71.7178 56.164C71.1978 56.444 70.6098 56.584 69.9538 56.584ZM69.9538 55.3C70.5058 55.3 70.9618 55.116 71.3218 54.748C71.6818 54.38 71.8618 53.896 71.8618 53.296C71.8618 52.696 71.6818 52.212 71.3218 51.844C70.9618 51.476 70.5058 51.292 69.9538 51.292C69.4018 51.292 68.9458 51.476 68.5858 51.844C68.2338 52.212 68.0578 52.696 68.0578 53.296C68.0578 53.896 68.2338 54.38 68.5858 54.748C68.9458 55.116 69.4018 55.3 69.9538 55.3ZM76.7882 56.584C76.2682 56.584 75.7602 56.516 75.2642 56.38C74.7682 56.244 74.3722 56.072 74.0762 55.864L74.6522 54.724C74.9402 54.916 75.2842 55.072 75.6842 55.192C76.0922 55.304 76.4922 55.36 76.8842 55.36C77.7802 55.36 78.2282 55.124 78.2282 54.652C78.2282 54.428 78.1122 54.272 77.8802 54.184C77.6562 54.096 77.2922 54.012 76.7882 53.932C76.2602 53.852 75.8282 53.76 75.4922 53.656C75.1642 53.552 74.8762 53.372 74.6282 53.116C74.3882 52.852 74.2682 52.488 74.2682 52.024C74.2682 51.416 74.5202 50.932 75.0242 50.572C75.5362 50.204 76.2242 50.02 77.0882 50.02C77.5282 50.02 77.9682 50.072 78.4082 50.176C78.8482 50.272 79.2082 50.404 79.4882 50.572L78.9122 51.712C78.3682 51.392 77.7562 51.232 77.0762 51.232C76.6362 51.232 76.3002 51.3 76.0682 51.436C75.8442 51.564 75.7322 51.736 75.7322 51.952C75.7322 52.192 75.8522 52.364 76.0922 52.468C76.3402 52.564 76.7202 52.656 77.2322 52.744C77.7442 52.824 78.1642 52.916 78.4922 53.02C78.8202 53.124 79.1002 53.3 79.3322 53.548C79.5722 53.796 79.6922 54.148 79.6922 54.604C79.6922 55.204 79.4322 55.684 78.9122 56.044C78.3922 56.404 77.6842 56.584 76.7882 56.584Z" fill="#F2CF8D"/>
<line x1="110.5" y1="70" x2="110.5" y2="-1.09278e-07" stroke="#F2CF8D" stroke-width="5"/>
</svg>
