<svg width="34" height="34" viewBox="0 0 34 34" fill="none" xmlns="http://www.w3.org/2000/svg">
<path d="M14.5695 17.46L11.5195 20.51M11.5495 17.49L14.5995 20.54" stroke="white" stroke-width="1.5" stroke-miterlimit="10" stroke-linecap="round" stroke-linejoin="round"/>
<path d="M18.5303 19H18.5403M22.4703 19H22.4803M20.5003 20.98V20.96M20.5003 17.04V17.02" stroke="white" stroke-width="2" stroke-miterlimit="10" stroke-linecap="round" stroke-linejoin="round"/>
<path d="M18.01 7L18 8.01C17.9974 8.27348 17.8908 8.52527 17.7036 8.71065C17.5163 8.89603 17.2635 9.00001 17 9H16.97C16.42 9 15.98 9.45 15.98 10C15.98 10.55 16.43 11 16.98 11H17.98M14 27H20C25 27 27 25 27 20V18C27 13 25 11 20 11H14C9 11 7 13 7 18V20C7 25 9 27 14 27Z" stroke="white" stroke-width="2" stroke-linecap="round" stroke-linejoin="round"/>
</svg>
