<svg width="34" height="34" viewBox="0 0 34 34" fill="none" xmlns="http://www.w3.org/2000/svg">
<path d="M13.5572 17.6516L9.23633 21.9724M9.27883 17.6941L13.5997 22.0149" stroke="#F2CF8D" stroke-width="1.5" stroke-miterlimit="10" stroke-linecap="round" stroke-linejoin="round"/>
<path d="M19.168 19.8333H19.1821M24.7496 19.8333H24.7638M21.9588 22.6383V22.61M21.9588 17.0567V17.0283" stroke="#F2CF8D" stroke-width="2" stroke-miterlimit="10" stroke-linecap="round" stroke-linejoin="round"/>
<path d="M18.4305 2.83337L18.4163 4.26421C18.4126 4.63747 18.2617 4.99418 17.9964 5.2568C17.7312 5.51942 17.373 5.66673 16.9997 5.66671H16.9572C16.178 5.66671 15.5547 6.30421 15.5547 7.08337C15.5547 7.86254 16.1922 8.50004 16.9713 8.50004H18.388M12.7497 31.1667H21.2497C28.333 31.1667 31.1663 28.3334 31.1663 21.25V18.4167C31.1663 11.3334 28.333 8.50004 21.2497 8.50004H12.7497C5.66634 8.50004 2.83301 11.3334 2.83301 18.4167V21.25C2.83301 28.3334 5.66634 31.1667 12.7497 31.1667Z" stroke="#F2CF8D" stroke-width="2" stroke-linecap="round" stroke-linejoin="round"/>
</svg>
