<svg width="113" height="70" viewBox="0 0 113 70" fill="none" xmlns="http://www.w3.org/2000/svg">
<path d="M55.0695 27.96L52.0195 31.01M52.0495 27.99L55.0995 31.04" stroke="white" stroke-width="1.5" stroke-miterlimit="10" stroke-linecap="round" stroke-linejoin="round"/>
<path d="M59.0303 29.5H59.0403M62.9703 29.5H62.9803M61.0003 31.48V31.46M61.0003 27.54V27.52" stroke="white" stroke-width="2" stroke-miterlimit="10" stroke-linecap="round" stroke-linejoin="round"/>
<path d="M58.51 17.5L58.5 18.51C58.4974 18.7735 58.3908 19.0253 58.2036 19.2107C58.0163 19.396 57.7635 19.5 57.5 19.5H57.47C56.92 19.5 56.48 19.95 56.48 20.5C56.48 21.05 56.93 21.5 57.48 21.5H58.48M54.5 37.5H60.5C65.5 37.5 67.5 35.5 67.5 30.5V28.5C67.5 23.5 65.5 21.5 60.5 21.5H54.5C49.5 21.5 47.5 23.5 47.5 28.5V30.5C47.5 35.5 49.5 37.5 54.5 37.5Z" stroke="white" stroke-width="2" stroke-linecap="round" stroke-linejoin="round"/>
<path d="M38.2329 51.62C37.6969 51.62 37.2009 51.516 36.7449 51.308C36.2969 51.092 35.9289 50.792 35.6409 50.408L36.5289 49.34C36.9929 49.98 37.5489 50.3 38.1969 50.3C39.0689 50.3 39.5049 49.784 39.5049 48.752V44.408H36.5169V43.1H41.0649V48.668C41.0649 49.652 40.8249 50.392 40.3449 50.888C39.8649 51.376 39.1609 51.62 38.2329 51.62ZM49.313 45.092V51.5H47.885V50.684C47.645 50.972 47.345 51.196 46.985 51.356C46.625 51.508 46.237 51.584 45.821 51.584C44.965 51.584 44.289 51.348 43.793 50.876C43.305 50.396 43.061 49.688 43.061 48.752V45.092H44.561V48.548C44.561 49.124 44.689 49.556 44.945 49.844C45.209 50.124 45.581 50.264 46.061 50.264C46.597 50.264 47.021 50.1 47.333 49.772C47.653 49.436 47.813 48.956 47.813 48.332V45.092H49.313ZM57.301 48.332C57.301 48.436 57.293 48.584 57.277 48.776H52.249C52.337 49.248 52.565 49.624 52.933 49.904C53.309 50.176 53.773 50.312 54.325 50.312C55.029 50.312 55.609 50.08 56.065 49.616L56.869 50.54C56.581 50.884 56.217 51.144 55.777 51.32C55.337 51.496 54.841 51.584 54.289 51.584C53.585 51.584 52.965 51.444 52.429 51.164C51.893 50.884 51.477 50.496 51.181 50C50.893 49.496 50.749 48.928 50.749 48.296C50.749 47.672 50.889 47.112 51.169 46.616C51.457 46.112 51.853 45.72 52.357 45.44C52.861 45.16 53.429 45.02 54.061 45.02C54.685 45.02 55.241 45.16 55.729 45.44C56.225 45.712 56.609 46.1 56.881 46.604C57.161 47.1 57.301 47.676 57.301 48.332ZM54.061 46.22C53.581 46.22 53.173 46.364 52.837 46.652C52.509 46.932 52.309 47.308 52.237 47.78H55.873C55.809 47.316 55.613 46.94 55.285 46.652C54.957 46.364 54.549 46.22 54.061 46.22ZM65.1018 45.092V50.528C65.1018 52.784 63.9498 53.912 61.6458 53.912C61.0298 53.912 60.4458 53.832 59.8938 53.672C59.3418 53.52 58.8858 53.296 58.5258 53L59.1978 51.872C59.4778 52.104 59.8298 52.288 60.2538 52.424C60.6858 52.568 61.1218 52.64 61.5618 52.64C62.2658 52.64 62.7818 52.48 63.1098 52.16C63.4378 51.84 63.6018 51.352 63.6018 50.696V50.36C63.3458 50.64 63.0338 50.852 62.6658 50.996C62.2978 51.14 61.8938 51.212 61.4538 51.212C60.8458 51.212 60.2938 51.084 59.7978 50.828C59.3098 50.564 58.9218 50.196 58.6338 49.724C58.3538 49.252 58.2138 48.712 58.2138 48.104C58.2138 47.496 58.3538 46.96 58.6338 46.496C58.9218 46.024 59.3098 45.66 59.7978 45.404C60.2938 45.148 60.8458 45.02 61.4538 45.02C61.9178 45.02 62.3378 45.096 62.7138 45.248C63.0978 45.4 63.4178 45.632 63.6738 45.944V45.092H65.1018ZM61.6818 49.94C62.2498 49.94 62.7138 49.772 63.0738 49.436C63.4418 49.092 63.6258 48.648 63.6258 48.104C63.6258 47.568 63.4418 47.132 63.0738 46.796C62.7138 46.46 62.2498 46.292 61.6818 46.292C61.1058 46.292 60.6338 46.46 60.2658 46.796C59.9058 47.132 59.7258 47.568 59.7258 48.104C59.7258 48.648 59.9058 49.092 60.2658 49.436C60.6338 49.772 61.1058 49.94 61.6818 49.94ZM69.9538 51.584C69.3058 51.584 68.7218 51.444 68.2018 51.164C67.6818 50.884 67.2738 50.496 66.9778 50C66.6898 49.496 66.5458 48.928 66.5458 48.296C66.5458 47.664 66.6898 47.1 66.9778 46.604C67.2738 46.108 67.6818 45.72 68.2018 45.44C68.7218 45.16 69.3058 45.02 69.9538 45.02C70.6098 45.02 71.1978 45.16 71.7178 45.44C72.2378 45.72 72.6418 46.108 72.9298 46.604C73.2258 47.1 73.3738 47.664 73.3738 48.296C73.3738 48.928 73.2258 49.496 72.9298 50C72.6418 50.496 72.2378 50.884 71.7178 51.164C71.1978 51.444 70.6098 51.584 69.9538 51.584ZM69.9538 50.3C70.5058 50.3 70.9618 50.116 71.3218 49.748C71.6818 49.38 71.8618 48.896 71.8618 48.296C71.8618 47.696 71.6818 47.212 71.3218 46.844C70.9618 46.476 70.5058 46.292 69.9538 46.292C69.4018 46.292 68.9458 46.476 68.5858 46.844C68.2338 47.212 68.0578 47.696 68.0578 48.296C68.0578 48.896 68.2338 49.38 68.5858 49.748C68.9458 50.116 69.4018 50.3 69.9538 50.3ZM76.7882 51.584C76.2682 51.584 75.7602 51.516 75.2642 51.38C74.7682 51.244 74.3722 51.072 74.0762 50.864L74.6522 49.724C74.9402 49.916 75.2842 50.072 75.6842 50.192C76.0922 50.304 76.4922 50.36 76.8842 50.36C77.7802 50.36 78.2282 50.124 78.2282 49.652C78.2282 49.428 78.1122 49.272 77.8802 49.184C77.6562 49.096 77.2922 49.012 76.7882 48.932C76.2602 48.852 75.8282 48.76 75.4922 48.656C75.1642 48.552 74.8762 48.372 74.6282 48.116C74.3882 47.852 74.2682 47.488 74.2682 47.024C74.2682 46.416 74.5202 45.932 75.0242 45.572C75.5362 45.204 76.2242 45.02 77.0882 45.02C77.5282 45.02 77.9682 45.072 78.4082 45.176C78.8482 45.272 79.2082 45.404 79.4882 45.572L78.9122 46.712C78.3682 46.392 77.7562 46.232 77.0762 46.232C76.6362 46.232 76.3002 46.3 76.0682 46.436C75.8442 46.564 75.7322 46.736 75.7322 46.952C75.7322 47.192 75.8522 47.364 76.0922 47.468C76.3402 47.564 76.7202 47.656 77.2322 47.744C77.7442 47.824 78.1642 47.916 78.4922 48.02C78.8202 48.124 79.1002 48.3 79.3322 48.548C79.5722 48.796 79.6922 49.148 79.6922 49.604C79.6922 50.204 79.4322 50.684 78.9122 51.044C78.3922 51.404 77.6842 51.584 76.7882 51.584Z" fill="white"/>
</svg>
