<svg width="80" height="80" viewBox="0 0 80 80" fill="none" xmlns="http://www.w3.org/2000/svg">
<g filter="url(#filter0_d_326_785)">
<g filter="url(#filter1_d_326_785)">
<path d="M17.8215 31.1877C12.5494 21.9615 22.5129 11.531 31.9707 16.3753L35.4593 18.1621C38.9284 19.9389 43.0493 19.8965 46.4811 18.0486L50.4024 15.9371C60.1873 10.6684 71.1359 20.6829 66.7582 30.8976C65.6256 33.5403 65.5022 36.5067 66.4114 39.2342L67.571 42.7131C71.7913 55.3738 57.5974 66.2138 46.2316 59.2194C42.9363 57.1915 38.8799 56.658 35.1845 57.8048C25.1096 60.9315 15.5368 51.737 18.2548 41.5443L18.8686 39.2426C19.5935 36.5245 19.2172 33.6301 17.8215 31.1877Z" fill="#3B3F8C"/>
<path d="M47.2812 29.3402H33.7187C29.4166 29.3402 25.9166 32.8402 25.9166 37.1423V45.2798C25.9166 49.5819 29.4166 53.0819 33.7187 53.0819H47.2812C51.5833 53.0819 55.0833 49.5819 55.0833 45.2798V37.1423C55.0833 32.8402 51.5833 29.3402 47.2812 29.3402ZM44.1458 38.5277C44.1458 37.7256 44.802 37.0694 45.6041 37.0694C46.4062 37.0694 47.0625 37.7256 47.0625 38.5277C47.0625 39.3298 46.4062 40.0006 45.6041 40.0006C44.802 40.0006 44.1458 39.359 44.1458 38.5569V38.5277ZM37.7729 44.434C37.5541 44.6527 37.277 44.7548 37 44.7548C36.7229 44.7548 36.4458 44.6527 36.227 44.434L34.725 42.9319L33.2812 44.3756C33.0625 44.5944 32.7854 44.6965 32.5083 44.6965C32.2312 44.6965 31.9541 44.5944 31.7354 44.3756C31.532 44.1698 31.4179 43.8921 31.4179 43.6027C31.4179 43.3133 31.532 43.0356 31.7354 42.8298L33.1791 41.386L31.7791 39.986C31.5757 39.7802 31.4616 39.5025 31.4616 39.2131C31.4616 38.9237 31.5757 38.646 31.7791 38.4402C32.202 38.0173 32.902 38.0173 33.325 38.4402L34.725 39.8402L36.1687 38.3965C36.5916 37.9735 37.2916 37.9735 37.7145 38.3965C38.1375 38.8194 38.1375 39.5194 37.7145 39.9423L36.2708 41.386L37.7729 42.8881C38.1958 43.311 38.1958 44.011 37.7729 44.434ZM42.7458 42.8735C41.9437 42.8735 41.2729 42.2173 41.2729 41.4152C41.2729 40.6131 41.9145 39.9569 42.7166 39.9569H42.7458C43.5479 39.9569 44.2041 40.6131 44.2041 41.4152C44.2041 42.2173 43.5625 42.8735 42.7458 42.8735ZM45.6041 45.7465C44.802 45.7465 44.1458 45.1048 44.1458 44.3027V44.2735C44.1458 43.4715 44.802 42.8152 45.6041 42.8152C46.4062 42.8152 47.0625 43.4715 47.0625 44.2735C47.0625 45.0756 46.4208 45.7465 45.6041 45.7465ZM48.4916 42.8735C47.6895 42.8735 47.0187 42.2173 47.0187 41.4152C47.0187 40.6131 47.6604 39.9569 48.4625 39.9569H48.4916C49.2937 39.9569 49.95 40.6131 49.95 41.4152C49.95 42.2173 49.3083 42.8735 48.4916 42.8735Z" fill="white"/>
<path d="M42.8916 24.952L42.877 26.3229C42.8656 26.9471 42.6106 27.542 42.1665 27.9807C41.7223 28.4194 41.1242 28.6671 40.4999 28.6708C40.2812 28.6708 40.1499 28.8166 40.1499 29.0062C40.1499 29.1958 40.2958 29.3416 40.4854 29.3416H38.1374C38.1229 29.2395 38.1083 29.1229 38.1083 29.0062C38.1083 27.6937 39.1729 26.6291 40.4708 26.6291C40.6895 26.6291 40.8354 26.4833 40.8354 26.2937L40.8499 24.9229C40.8645 24.3687 41.3166 23.9166 41.8708 23.9166H41.8854C42.4541 23.9166 42.8916 24.3833 42.8916 24.952Z" fill="white"/>
</g>
</g>
<defs>
<filter id="filter0_d_326_785" x="-4" y="0" width="88" height="88" filterUnits="userSpaceOnUse" color-interpolation-filters="sRGB">
<feFlood flood-opacity="0" result="BackgroundImageFix"/>
<feColorMatrix in="SourceAlpha" type="matrix" values="0 0 0 0 0 0 0 0 0 0 0 0 0 0 0 0 0 0 127 0" result="hardAlpha"/>
<feOffset dy="4"/>
<feGaussianBlur stdDeviation="2"/>
<feComposite in2="hardAlpha" operator="out"/>
<feColorMatrix type="matrix" values="0 0 0 0 0 0 0 0 0 0 0 0 0 0 0 0 0 0 0.25 0"/>
<feBlend mode="normal" in2="BackgroundImageFix" result="effect1_dropShadow_326_785"/>
<feBlend mode="normal" in="SourceGraphic" in2="effect1_dropShadow_326_785" result="shape"/>
</filter>
<filter id="filter1_d_326_785" x="12.3583" y="14.4857" width="59.9738" height="54.9313" filterUnits="userSpaceOnUse" color-interpolation-filters="sRGB">
<feFlood flood-opacity="0" result="BackgroundImageFix"/>
<feColorMatrix in="SourceAlpha" type="matrix" values="0 0 0 0 0 0 0 0 0 0 0 0 0 0 0 0 0 0 127 0" result="hardAlpha"/>
<feOffset dy="4"/>
<feGaussianBlur stdDeviation="2"/>
<feComposite in2="hardAlpha" operator="out"/>
<feColorMatrix type="matrix" values="0 0 0 0 0 0 0 0 0 0 0 0 0 0 0 0 0 0 0.25 0"/>
<feBlend mode="normal" in2="BackgroundImageFix" result="effect1_dropShadow_326_785"/>
<feBlend mode="normal" in="SourceGraphic" in2="effect1_dropShadow_326_785" result="shape"/>
</filter>
</defs>
</svg>
