<svg width="3" height="8" viewBox="0 0 3 8" fill="none" xmlns="http://www.w3.org/2000/svg">
<path d="M1.4985 -0.846191C-1.12782 -0.846191 -3.24757 1.22361 -3.33887 3.82689C-3.3409 3.88482 -3.34766 3.94152 -3.34766 3.99996C-3.34766 6.68473 -1.18627 8.84612 1.4985 8.84612C4.18327 8.84612 6.34465 6.68473 6.34465 3.99996C6.34465 3.94152 6.3379 3.88482 6.33586 3.82689C6.24457 1.22361 4.12482 -0.846191 1.4985 -0.846191ZM1.4985 -0.500038C3.9915 -0.500038 5.9985 1.50697 5.9985 3.99996C5.9985 6.49296 3.9915 8.49996 1.4985 8.49996C-0.994499 8.49996 -3.0015 6.49296 -3.0015 3.99996C-3.0015 1.50697 -0.994499 -0.500038 1.4985 -0.500038ZM1.15234 1.57689V2.26919H1.84465V1.57689H1.15234ZM1.15234 2.9615V6.42304H1.84465V2.9615H1.15234Z" fill="white"/>
</svg>
