<svg width="80" height="87" viewBox="0 0 80 87" fill="none" xmlns="http://www.w3.org/2000/svg">
<ellipse cx="40" cy="33" rx="34" ry="33" fill="white"/>
<path d="M20 16C22.5 28.5 19 29.5 33.1319 24.8838" stroke="#F2CF8D" stroke-width="2"/>
<path d="M29.4691 49.0506C27.2825 47.2763 25.3719 45.3139 23.7376 43.1636C22.1033 41.0133 20.9502 39.0062 20.2785 37.1424L28.3132 33.03C28.971 34.7588 29.8762 36.4618 31.0291 38.139C32.2269 39.8115 33.5465 41.2325 34.9877 42.4019C35.8325 43.0875 36.5313 43.5721 37.0841 43.8558C37.6819 44.1348 38.1733 44.2657 38.5582 44.2483C38.9633 44.2062 39.2869 44.036 39.5288 43.7378C39.9119 43.2657 39.9534 42.6812 39.6534 41.9845C39.3534 41.2877 38.8391 40.4995 38.1105 39.6199C37.427 38.7356 36.6564 37.7807 35.7989 36.7552C34.9616 35.7049 34.1623 34.5824 33.4009 33.3876C32.6644 32.2131 32.0932 30.9872 31.6872 29.71C31.3061 28.4529 31.2276 27.153 31.4518 25.8101C31.6962 24.4425 32.383 23.0629 33.5121 21.6713C34.8227 20.0562 36.4596 18.953 38.4227 18.3619C40.4309 17.7661 42.6522 17.7965 45.0865 18.4531C47.5457 19.1298 50.1171 20.557 52.8008 22.7346C54.565 24.1661 56.1532 25.7639 57.5653 27.5279C58.9774 29.2918 60.0543 31.1135 60.7959 32.9927L52.9778 37.2191C52.2099 35.5245 51.3482 34.0218 50.3927 32.7107C49.4621 31.4199 48.4253 30.3107 47.2822 29.3832C46.4374 28.6977 45.706 28.2278 45.088 27.9737C44.4701 27.7195 43.9485 27.6259 43.5232 27.6929C43.1228 27.7801 42.8016 27.9728 42.5596 28.271C42.1967 28.7183 42.1652 29.2903 42.4653 29.987C42.7855 30.659 43.2974 31.4247 44.0011 32.2841C44.7297 33.1638 45.5227 34.1163 46.3802 35.1418C47.2626 36.1874 48.072 37.2975 48.8085 38.4721C49.545 39.6466 50.1038 40.8625 50.4849 42.1195C50.8909 43.3967 50.9818 44.7068 50.7576 46.0496C50.5334 47.3924 49.8668 48.7472 48.7578 50.1138C47.4674 51.7041 45.8181 52.7972 43.8099 53.393C41.8467 53.9841 39.6379 53.9638 37.1834 53.3321C34.7491 52.6755 32.1776 51.2484 29.4691 49.0506Z" fill="black"/>
<path d="M44.7253 23.9685C44.8977 24.6978 44.4462 25.4281 43.7176 25.6004C42.9883 25.7729 42.258 25.3214 42.0857 24.5928C41.9132 23.8635 42.3647 23.1332 43.0934 22.9608C43.822 22.7885 44.553 23.2399 44.7253 23.9685Z" fill="#129AD6"/>
<path d="M49.4109 22.8604C49.5834 23.5896 49.1319 24.32 48.4032 24.4923C47.674 24.6647 46.9437 24.2133 46.7713 23.4846C46.5989 22.7553 47.0504 22.025 47.779 21.8527C48.5077 21.6804 49.2386 22.1317 49.4109 22.8604Z" fill="#E03339"/>
<path d="M46.6603 21.1299C46.8328 21.8592 46.3813 22.5895 45.6526 22.7618C44.9234 22.9343 44.193 22.4828 44.0207 21.7541C43.8483 21.0249 44.2998 20.2945 45.0284 20.1222C45.7569 19.9493 46.4879 20.4006 46.6603 21.1299Z" fill="#FCDD10"/>
<path d="M47.7181 25.6028C47.8905 26.3321 47.439 27.0624 46.7104 27.2347C45.9811 27.4072 45.2508 26.9557 45.0785 26.227C44.906 25.4978 45.3575 24.7674 46.0862 24.5951C46.8147 24.4222 47.5456 24.8735 47.7181 25.6028Z" fill="#89C94E"/>
<circle cx="36.3183" cy="42.2881" r="4.9" transform="rotate(-0.457124 36.3183 42.2881)" fill="black" stroke="white" stroke-width="0.2"/>
<path d="M44.7253 23.9685C44.8977 24.6978 44.4462 25.4281 43.7176 25.6004C42.9883 25.7729 42.258 25.3214 42.0857 24.5928C41.9132 23.8635 42.3647 23.1332 43.0934 22.9608C43.822 22.7885 44.553 23.2399 44.7253 23.9685Z" fill="#129AD6"/>
<path d="M49.4109 22.8604C49.5834 23.5896 49.1319 24.32 48.4032 24.4923C47.674 24.6647 46.9437 24.2133 46.7713 23.4846C46.5989 22.7553 47.0504 22.025 47.779 21.8527C48.5077 21.6804 49.2386 22.1317 49.4109 22.8604Z" fill="#E03339"/>
<path d="M46.6603 21.1299C46.8328 21.8592 46.3813 22.5895 45.6526 22.7618C44.9234 22.9343 44.193 22.4828 44.0207 21.7541C43.8483 21.0249 44.2998 20.2945 45.0284 20.1222C45.7569 19.9493 46.4879 20.4006 46.6603 21.1299Z" fill="#F2CF8D"/>
<path d="M47.7181 25.6028C47.8905 26.3321 47.439 27.0624 46.7104 27.2347C45.9811 27.4072 45.2508 26.9557 45.0785 26.227C44.906 25.4978 45.3575 24.7674 46.0862 24.5951C46.8147 24.4222 47.5456 24.8735 47.7181 25.6028Z" fill="#89C94E"/>
<circle cx="36.3184" cy="42.2881" r="4.9" transform="rotate(-0.457124 36.3184 42.2881)" fill="black" stroke="white" stroke-width="0.2"/>
<path d="M33.145 40.1726C32.2001 41.5981 32.355 43.4381 33.4068 44.6823C33.631 44.9502 33.8968 45.1885 34.2024 45.391C34.6694 45.7006 35.1813 45.8927 35.7036 45.9724C37.1107 46.1908 38.5843 45.5956 39.4218 44.3323C40.3639 42.911 40.2114 41.0766 39.1656 39.8323C38.9395 39.5612 38.6705 39.3187 38.3621 39.1143C36.632 37.9684 34.2916 38.4429 33.145 40.1726ZM38.4646 42.6959C38.6874 42.8436 38.7479 43.1422 38.6002 43.3649L38.209 43.9552C38.0622 44.1765 37.7636 44.2371 37.5409 44.0894L36.5302 43.4195L35.8593 44.4315C35.7126 44.6529 35.414 44.7134 35.1913 44.5658L34.601 44.1745C34.3797 44.0278 34.3191 43.7291 34.4659 43.5078L35.1367 42.4957L34.1247 41.8249C33.9033 41.6781 33.8428 41.3795 33.9895 41.1582L34.3808 40.5679C34.5285 40.3452 34.8271 40.2846 35.0484 40.4314L36.0605 41.1023L36.7304 40.0916C36.8781 39.8689 37.1767 39.8083 37.398 39.955L37.9883 40.3463C38.211 40.494 38.2716 40.7926 38.1239 41.0153L37.454 42.026L38.4646 42.6959Z" fill="white"/>
<path d="M18.5384 12.2947C18.26 12.3383 18.0678 12.6017 18.1114 12.8802L18.4285 14.9051L18.1754 14.9447L18.334 15.9572L19.505 16.8111L19.5843 17.3173L21.1029 17.0795L21.0237 16.5732L21.8776 15.4022L21.719 14.3898L21.4659 14.4294L21.1488 12.4045C21.1052 12.1261 20.8443 11.9336 20.5633 11.9776M18.6177 12.8009L20.6426 12.4838L20.9597 14.5087L18.9348 14.8258M18.9897 13.5206L19.069 14.0268L19.5752 13.9475L19.4959 13.4413M20.0021 13.362L20.0814 13.8683L20.5876 13.789L20.5084 13.2828L20.0021 13.362Z" fill="#F2CF8D"/>
<path d="M1.53672 82V68H5.49672V78.86H12.1767V82H1.53672ZM73.2341 82.28C72.0874 82.28 70.9807 82.14 69.9141 81.86C68.8607 81.5667 68.0007 81.1933 67.3341 80.74L68.6341 77.82C69.2607 78.22 69.9807 78.5533 70.7941 78.82C71.6207 79.0733 72.4407 79.2 73.2541 79.2C73.8007 79.2 74.2407 79.1533 74.5741 79.06C74.9074 78.9533 75.1474 78.82 75.2941 78.66C75.4541 78.4867 75.5341 78.2867 75.5341 78.06C75.5341 77.74 75.3874 77.4867 75.0941 77.3C74.8007 77.1133 74.4207 76.96 73.9541 76.84C73.4874 76.72 72.9674 76.6 72.3941 76.48C71.8341 76.36 71.2674 76.2067 70.6941 76.02C70.1341 75.8333 69.6207 75.5933 69.1541 75.3C68.6874 74.9933 68.3074 74.6 68.0141 74.12C67.7207 73.6267 67.5741 73.0067 67.5741 72.26C67.5741 71.42 67.8007 70.66 68.2541 69.98C68.7207 69.3 69.4141 68.7533 70.3341 68.34C71.2541 67.9267 72.4007 67.72 73.7741 67.72C74.6941 67.72 75.5941 67.8267 76.4741 68.04C77.3674 68.24 78.1607 68.54 78.8541 68.94L77.6341 71.88C76.9674 71.52 76.3074 71.2533 75.6541 71.08C75.0007 70.8933 74.3674 70.8 73.7541 70.8C73.2074 70.8 72.7674 70.86 72.4341 70.98C72.1007 71.0867 71.8607 71.2333 71.7141 71.42C71.5674 71.6067 71.4941 71.82 71.4941 72.06C71.4941 72.3667 71.6341 72.6133 71.9141 72.8C72.2074 72.9733 72.5874 73.12 73.0541 73.24C73.5341 73.3467 74.0541 73.46 74.6141 73.58C75.1874 73.7 75.7541 73.8533 76.3141 74.04C76.8874 74.2133 77.4074 74.4533 77.8741 74.76C78.3407 75.0533 78.7141 75.4467 78.9941 75.94C79.2874 76.42 79.4341 77.0267 79.4341 77.76C79.4341 78.5733 79.2007 79.3267 78.7341 80.02C78.2807 80.7 77.5941 81.2467 76.6741 81.66C75.7674 82.0733 74.6207 82.28 73.2341 82.28Z" fill="#F2CF8D"/>
<path d="M18.1238 82.18C17.2438 82.18 16.4504 82.0067 15.7438 81.66C15.0504 81.3133 14.5038 80.7733 14.1038 80.04C13.7171 79.2933 13.5238 78.3533 13.5238 77.22V71.16H17.3238V76.6C17.3238 77.44 17.4771 78.04 17.7838 78.4C18.1038 78.76 18.5504 78.94 19.1238 78.94C19.4971 78.94 19.8371 78.8533 20.1438 78.68C20.4504 78.5067 20.6971 78.2333 20.8838 77.86C21.0704 77.4733 21.1638 76.98 21.1638 76.38V71.16H24.9638V82H21.3438V78.94L22.0438 79.8C21.6704 80.6 21.1304 81.2 20.4238 81.6C19.7171 81.9867 18.9504 82.18 18.1238 82.18ZM32.1314 82.18C31.1447 82.18 30.2447 81.9533 29.4314 81.5C28.6314 81.0333 27.9914 80.3867 27.5114 79.56C27.0314 78.72 26.7914 77.72 26.7914 76.56C26.7914 75.4133 27.0314 74.4267 27.5114 73.6C27.9914 72.76 28.6314 72.1133 29.4314 71.66C30.2447 71.2067 31.1447 70.98 32.1314 70.98C33.0647 70.98 33.8514 71.18 34.4914 71.58C35.1447 71.98 35.6381 72.5933 35.9714 73.42C36.3047 74.2467 36.4714 75.2933 36.4714 76.56C36.4714 77.8533 36.3114 78.9133 35.9914 79.74C35.6714 80.5667 35.1914 81.18 34.5514 81.58C33.9114 81.98 33.1047 82.18 32.1314 82.18ZM32.9314 79.16C33.3581 79.16 33.7381 79.06 34.0714 78.86C34.4181 78.66 34.6914 78.3667 34.8914 77.98C35.0914 77.58 35.1914 77.1067 35.1914 76.56C35.1914 76.0133 35.0914 75.5533 34.8914 75.18C34.6914 74.7933 34.4181 74.5 34.0714 74.3C33.7381 74.1 33.3581 74 32.9314 74C32.4914 74 32.0981 74.1 31.7514 74.3C31.4181 74.5 31.1514 74.7933 30.9514 75.18C30.7514 75.5533 30.6514 76.0133 30.6514 76.56C30.6514 77.1067 30.7514 77.58 30.9514 77.98C31.1514 78.3667 31.4181 78.66 31.7514 78.86C32.0981 79.06 32.4914 79.16 32.9314 79.16ZM35.3114 82V80.14L35.3314 76.56L35.1314 72.98V67.16H38.9314V82H35.3114ZM47.0563 82.18C45.7763 82.18 44.6563 81.94 43.6963 81.46C42.7496 80.9667 42.0096 80.3 41.4762 79.46C40.9563 78.6067 40.6963 77.64 40.6963 76.56C40.6963 75.48 40.9496 74.52 41.4563 73.68C41.9763 72.8267 42.6896 72.1667 43.5963 71.7C44.5029 71.22 45.5229 70.98 46.6563 70.98C47.7229 70.98 48.6963 71.2 49.5763 71.64C50.4563 72.0667 51.1563 72.7 51.6763 73.54C52.1963 74.38 52.4563 75.4 52.4563 76.6C52.4563 76.7333 52.4496 76.8867 52.4363 77.06C52.4229 77.2333 52.4096 77.3933 52.3963 77.54H43.8163V75.54H50.3763L48.9363 76.1C48.9496 75.6067 48.8563 75.18 48.6563 74.82C48.4696 74.46 48.2029 74.18 47.8563 73.98C47.5229 73.78 47.1296 73.68 46.6763 73.68C46.2229 73.68 45.8229 73.78 45.4763 73.98C45.1429 74.18 44.8829 74.4667 44.6963 74.84C44.5096 75.2 44.4163 75.6267 44.4163 76.12V76.7C44.4163 77.2333 44.5229 77.6933 44.7363 78.08C44.9629 78.4667 45.2829 78.7667 45.6963 78.98C46.1096 79.18 46.6029 79.28 47.1763 79.28C47.7096 79.28 48.1629 79.2067 48.5363 79.06C48.9229 78.9 49.3029 78.66 49.6763 78.34L51.6763 80.42C51.1563 80.9933 50.5163 81.4333 49.7563 81.74C48.9963 82.0333 48.0963 82.18 47.0563 82.18ZM61.2683 70.98C62.1083 70.98 62.8683 71.1533 63.5483 71.5C64.2283 71.8333 64.7616 72.3533 65.1483 73.06C65.5483 73.7667 65.7483 74.68 65.7483 75.8V82H61.9483V76.42C61.9483 75.6467 61.7883 75.0867 61.4683 74.74C61.1616 74.38 60.7283 74.2 60.1683 74.2C59.7683 74.2 59.4016 74.2933 59.0683 74.48C58.7349 74.6533 58.4749 74.9267 58.2883 75.3C58.1016 75.6733 58.0083 76.16 58.0083 76.76V82H54.2083V71.16H57.8283V74.24L57.1283 73.34C57.5416 72.5533 58.1083 71.9667 58.8283 71.58C59.5483 71.18 60.3616 70.98 61.2683 70.98Z" fill="white"/>
</svg>
