<svg width="114" height="49" viewBox="0 0 114 49" fill="none" xmlns="http://www.w3.org/2000/svg">
<path d="M1.51133 16H5.47133V26.86H12.1513V30H1.51133V16Z" fill="#F2CF8D"/>
<path d="M24.9384 19.16V30H21.3184V28.84C20.9184 29.28 20.4384 29.6133 19.8784 29.84C19.3184 30.0667 18.725 30.18 18.0984 30.18C16.6984 30.18 15.5784 29.7667 14.7384 28.94C13.9117 28.1133 13.4984 26.8733 13.4984 25.22V19.16H17.2984V24.6C17.2984 25.4133 17.4517 26.0067 17.7584 26.38C18.065 26.7533 18.5117 26.94 19.0984 26.94C19.6984 26.94 20.185 26.7333 20.5584 26.32C20.945 25.8933 21.1384 25.2467 21.1384 24.38V19.16H24.9384ZM38.906 15.16V30H35.286V28.92C34.5793 29.76 33.5193 30.18 32.106 30.18C31.1193 30.18 30.2193 29.9533 29.406 29.5C28.5927 29.0333 27.946 28.3733 27.466 27.52C26.9993 26.6667 26.766 25.68 26.766 24.56C26.766 23.44 26.9993 22.46 27.466 21.62C27.946 20.7667 28.5927 20.1133 29.406 19.66C30.2193 19.2067 31.1193 18.98 32.106 18.98C33.3993 18.98 34.3993 19.3533 35.106 20.1V15.16H38.906ZM32.906 27.16C33.5593 27.16 34.0993 26.9333 34.526 26.48C34.9527 26.0133 35.166 25.3733 35.166 24.56C35.166 23.76 34.9527 23.1333 34.526 22.68C34.1127 22.2267 33.5727 22 32.906 22C32.2393 22 31.6927 22.2267 31.266 22.68C30.8393 23.1333 30.626 23.76 30.626 24.56C30.626 25.3733 30.8393 26.0133 31.266 26.48C31.6927 26.9333 32.2393 27.16 32.906 27.16ZM52.4309 24.6C52.4309 24.6267 52.4109 24.94 52.3709 25.54H44.4909C44.6509 26.1 44.9575 26.5333 45.4109 26.84C45.8775 27.1333 46.4575 27.28 47.1509 27.28C47.6709 27.28 48.1175 27.2067 48.4909 27.06C48.8775 26.9133 49.2642 26.6733 49.6509 26.34L51.6509 28.42C50.5975 29.5933 49.0575 30.18 47.0309 30.18C45.7642 30.18 44.6509 29.94 43.6909 29.46C42.7309 28.98 41.9842 28.3133 41.4509 27.46C40.9309 26.6067 40.6709 25.64 40.6709 24.56C40.6709 23.4933 40.9242 22.54 41.4309 21.7C41.9509 20.8467 42.6642 20.18 43.5709 19.7C44.4775 19.22 45.4975 18.98 46.6309 18.98C47.7109 18.98 48.6909 19.2067 49.5709 19.66C50.4509 20.1 51.1442 20.7467 51.6509 21.6C52.1709 22.44 52.4309 23.44 52.4309 24.6ZM46.6509 21.68C46.0642 21.68 45.5709 21.8467 45.1709 22.18C44.7842 22.5133 44.5375 22.9667 44.4309 23.54H48.8709C48.7642 22.9667 48.5109 22.5133 48.1109 22.18C47.7242 21.8467 47.2375 21.68 46.6509 21.68ZM61.2429 18.98C62.5896 18.98 63.6696 19.38 64.4829 20.18C65.3096 20.98 65.7229 22.1867 65.7229 23.8V30H61.9229V24.42C61.9229 22.94 61.3296 22.2 60.1429 22.2C59.4896 22.2 58.9629 22.4133 58.5629 22.84C58.1762 23.2667 57.9829 23.9067 57.9829 24.76V30H54.1829V19.16H57.8029V20.34C58.2296 19.9 58.7362 19.5667 59.3229 19.34C59.9096 19.1 60.5496 18.98 61.2429 18.98Z" fill="white"/>
<ellipse cx="89.3668" cy="23.6502" rx="24.3668" ry="23.6502" fill="white"/>
<path d="M75.0333 11.4668C76.825 20.4251 74.3167 21.1418 84.4446 17.8335" stroke="#F2CF8D" stroke-width="1.43334"/>
<path d="M82.2762 34.6431C80.7268 33.3859 79.3504 31.9885 78.1469 30.4507C76.9756 28.9096 76.1564 27.4623 75.6895 26.1088L81.4478 23.1616C81.9191 24.4005 82.5768 25.6282 83.4208 26.8447C84.2793 28.0433 85.2161 29.0545 86.2311 29.8782C87.1037 30.5862 87.7921 31.0118 88.2961 31.155C88.8146 31.2804 89.2111 31.1739 89.4856 30.8355C89.8035 30.4438 89.7926 29.9476 89.453 29.3471C89.1311 28.7611 88.5031 27.8971 87.569 26.7552C86.3722 25.282 85.4303 23.9861 84.7432 22.8674C84.0705 21.7309 83.6959 20.4819 83.6194 19.1203C83.5573 17.741 84.0754 16.3746 85.1736 15.0211C86.1273 13.8458 87.3238 13.0446 88.763 12.6176C90.2022 12.1906 91.7958 12.2285 93.5438 12.7313C95.3096 13.2486 97.1274 14.2658 98.9973 15.7831C100.279 16.8235 101.419 17.9847 102.417 19.2667C103.447 20.5454 104.217 21.8347 104.727 23.1348L99.1241 26.1637C98.0413 23.7493 96.6807 21.8774 95.0423 20.548C93.4217 19.233 92.2935 18.9673 91.6577 19.7509C91.3543 20.1249 91.3635 20.6049 91.6854 21.1909C92.0217 21.7592 92.6552 22.5981 93.5859 23.7077C94.7938 25.1309 95.743 26.4179 96.4335 27.5688C97.1384 28.7019 97.5291 29.9493 97.6056 31.3109C97.7 32.6869 97.198 34.0516 96.0998 35.4051C95.1461 36.5804 93.9496 37.3816 92.5104 37.8086C91.0856 38.2178 89.4831 38.1726 87.7029 37.6732C85.955 37.1704 84.146 36.1603 82.2762 34.6431Z" fill="black"/>
<path d="M92.7533 17.1773C92.8769 17.7 92.5533 18.2234 92.0311 18.3469C91.5085 18.4705 90.9851 18.1469 90.8616 17.6247C90.738 17.1021 91.0616 16.5786 91.5838 16.4552C92.106 16.3317 92.6298 16.6551 92.7533 17.1773Z" fill="#129AD6"/>
<path d="M96.1114 16.3833C96.235 16.9059 95.9114 17.4293 95.3892 17.5528C94.8666 17.6764 94.3431 17.3528 94.2197 16.8306C94.0961 16.308 94.4196 15.7846 94.9418 15.6611C95.464 15.5376 95.9879 15.8611 96.1114 16.3833Z" fill="#E03339"/>
<path d="M94.1401 15.143C94.2637 15.6657 93.9402 16.1891 93.4179 16.3126C92.8953 16.4362 92.3719 16.1126 92.2484 15.5904C92.1248 15.0677 92.4484 14.5443 92.9706 14.4209C93.4927 14.2969 94.0165 14.6204 94.1401 15.143Z" fill="#FCDD10"/>
<path d="M94.8982 18.3486C95.0217 18.8712 94.6982 19.3946 94.176 19.5181C93.6533 19.6417 93.1299 19.3182 93.0064 18.796C92.8828 18.2733 93.2064 17.7499 93.7286 17.6264C94.2507 17.5025 94.7746 17.826 94.8982 18.3486Z" fill="#89C94E"/>
<circle cx="86.7283" cy="30.3064" r="3.51169" transform="rotate(-0.457124 86.7283 30.3064)" fill="black" stroke="white" stroke-width="0.143334"/>
<path d="M92.7533 17.1773C92.8769 17.7 92.5533 18.2234 92.0311 18.3469C91.5085 18.4705 90.9851 18.1469 90.8616 17.6247C90.738 17.1021 91.0616 16.5786 91.5838 16.4552C92.106 16.3317 92.6298 16.6551 92.7533 17.1773Z" fill="#129AD6"/>
<path d="M96.1114 16.3833C96.235 16.9059 95.9114 17.4293 95.3892 17.5528C94.8666 17.6764 94.3431 17.3528 94.2197 16.8306C94.0961 16.308 94.4196 15.7846 94.9418 15.6611C95.464 15.5376 95.9879 15.8611 96.1114 16.3833Z" fill="#E03339"/>
<path d="M94.1401 15.143C94.2637 15.6657 93.9402 16.1891 93.4179 16.3126C92.8953 16.4362 92.3719 16.1126 92.2484 15.5904C92.1248 15.0677 92.4484 14.5443 92.9706 14.4209C93.4927 14.2969 94.0165 14.6204 94.1401 15.143Z" fill="#F2CF8D"/>
<path d="M94.8982 18.3486C95.0217 18.8712 94.6982 19.3946 94.176 19.5181C93.6533 19.6417 93.1299 19.3182 93.0064 18.796C92.8828 18.2733 93.2064 17.7499 93.7286 17.6264C94.2507 17.5025 94.7746 17.826 94.8982 18.3486Z" fill="#89C94E"/>
<circle cx="86.7283" cy="30.3064" r="3.51169" transform="rotate(-0.457124 86.7283 30.3064)" fill="black" stroke="white" stroke-width="0.143334"/>
<path d="M84.4541 28.7904C83.7769 29.812 83.8879 31.1307 84.6417 32.0224C84.8023 32.2144 84.9928 32.3852 85.2118 32.5304C85.5466 32.7522 85.9134 32.8899 86.2877 32.947C87.2962 33.1035 88.3523 32.677 88.9524 31.7716C89.6277 30.753 89.5183 29.4383 88.7689 28.5466C88.6068 28.3523 88.414 28.1785 88.193 28.032C86.9531 27.2108 85.2758 27.5508 84.4541 28.7904ZM88.2665 30.5988C88.4261 30.7047 88.4695 30.9187 88.3637 31.0783L88.0833 31.5013C87.9781 31.66 87.7641 31.7033 87.6045 31.5975L86.8802 31.1174L86.3994 31.8427C86.2942 32.0013 86.0802 32.0447 85.9206 31.9389L85.4975 31.6585C85.3389 31.5533 85.2955 31.3393 85.4007 31.1807L85.8815 30.4554L85.1562 29.9746C84.9975 29.8694 84.9542 29.6554 85.0593 29.4968L85.3397 29.0738C85.4455 28.9141 85.6595 28.8707 85.8182 28.9759L86.5435 29.4567L87.0236 28.7324C87.1294 28.5728 87.3435 28.5294 87.5021 28.6345L87.9251 28.9149C88.0847 29.0208 88.1281 29.2348 88.0223 29.3944L87.5422 30.1187L88.2665 30.5988Z" fill="white"/>
<path d="M73.986 8.81126C73.7864 8.84251 73.6487 9.03134 73.68 9.23088L73.9072 10.6821L73.7258 10.7105L73.8395 11.4361L74.6787 12.048L74.7355 12.4108L75.8239 12.2404L75.7671 11.8776L76.3791 11.0384L76.2654 10.3128L76.084 10.3412L75.8568 8.88999C75.8255 8.69045 75.6385 8.55248 75.4372 8.58401M74.0428 9.17406L75.494 8.94681L75.7212 10.398L74.27 10.6253M74.3094 9.68985L74.3662 10.0527L74.729 9.99584L74.6722 9.63304M75.035 9.57623L75.0918 9.93902L75.4546 9.88221L75.3978 9.51941L75.035 9.57623Z" fill="#F2CF8D"/>
</svg>
