<svg width="36" height="35" viewBox="0 0 36 35" fill="none" xmlns="http://www.w3.org/2000/svg">
<path d="M25.7146 6.03749L25.6125 11.5645C25.598 12.3229 26.0792 13.3292 26.6917 13.7812L30.3084 16.5229C32.6271 18.2729 32.248 20.4167 29.4771 21.2917L24.7667 22.7646C23.9792 23.0125 23.148 23.8729 22.9438 24.675L21.8209 28.9625C20.9313 32.3458 18.7146 32.6812 16.8771 29.7063L14.3104 25.55C13.8438 24.7917 12.7355 24.2229 11.8605 24.2667L6.98966 24.5146C3.50425 24.6896 2.51256 22.6771 4.78756 20.0229L7.67504 16.6688C8.21462 16.0417 8.46254 14.875 8.21462 14.0875L6.74177 9.37704C5.88136 6.60621 7.42718 5.07499 10.1834 5.97915L14.4855 7.39374C15.2146 7.62707 16.3084 7.46664 16.9209 7.01455L21.4125 3.77705C23.8334 2.02705 25.773 3.0479 25.7146 6.03749Z" stroke="#F2CF8D" stroke-width="1.5" stroke-linecap="round" stroke-linejoin="round"/>
<path d="M32.4522 32.0833L28.0334 27.6646" stroke="#F2CF8D" stroke-width="1.5" stroke-linecap="round" stroke-linejoin="round"/>
</svg>
