<svg width="35" height="35" viewBox="0 0 35 35" fill="none" xmlns="http://www.w3.org/2000/svg">
<path d="M27.7082 13.125C27.7082 15.2396 27.0812 17.1792 26.002 18.7979C25.2112 19.9773 24.1826 20.9784 22.9821 21.7368C21.7816 22.4953 20.4359 22.9944 19.0312 23.2021C18.5353 23.2896 18.0249 23.3333 17.4999 23.3333C16.9749 23.3333 16.4645 23.2896 15.9687 23.2021C14.5639 22.9944 13.2182 22.4953 12.0177 21.7368C10.8172 20.9784 9.7886 19.9773 8.99782 18.7979C7.87827 17.1184 7.28427 15.1435 7.29157 13.125C7.29157 7.48124 11.8562 2.91666 17.4999 2.91666C23.1437 2.91666 27.7082 7.48124 27.7082 13.125Z" stroke="#F2CF8D" stroke-width="1.5" stroke-linecap="round" stroke-linejoin="round"/>
<path d="M30.9896 26.9354L28.5833 27.5042C28.0438 27.6354 27.6208 28.0438 27.5042 28.5833L26.9938 30.7271C26.9312 30.9902 26.7966 31.2308 26.6051 31.4219C26.4136 31.6129 26.1728 31.747 25.9095 31.809C25.6462 31.871 25.3709 31.8586 25.1142 31.7732C24.8576 31.6877 24.6298 31.5325 24.4563 31.325L17.5 23.3333L10.5438 31.3396C10.3702 31.5471 10.1424 31.7023 9.8858 31.7877C9.62916 31.8732 9.35381 31.8856 9.09052 31.8236C8.82723 31.7615 8.58639 31.6275 8.39491 31.4364C8.20343 31.2454 8.06887 31.0048 8.00626 30.7417L7.49584 28.5979C7.4338 28.3356 7.3 28.0958 7.10942 27.9052C6.91883 27.7146 6.67897 27.5808 6.41668 27.5188L4.01043 26.95C3.75832 26.8896 3.5268 26.7632 3.33958 26.5839C3.15237 26.4046 3.01617 26.1787 2.94495 25.9294C2.87373 25.6802 2.87004 25.4164 2.93426 25.1653C2.99848 24.9141 3.1283 24.6845 3.31043 24.5L8.99793 18.8125C9.7887 19.9919 10.8173 20.993 12.0178 21.7514C13.2183 22.5099 14.564 23.009 15.9688 23.2167C16.4646 23.3042 16.975 23.3479 17.5 23.3479C18.025 23.3479 18.5354 23.3042 19.0313 23.2167C21.9333 22.7938 24.4271 21.1458 26.0021 18.8125L31.6896 24.5C32.4917 25.2875 32.0979 26.6729 30.9896 26.9354V26.9354ZM18.3458 8.72084L19.2063 10.4417C19.3229 10.675 19.6292 10.9083 19.9063 10.9521L21.4667 11.2146C22.4583 11.375 22.6917 12.1042 21.9771 12.8188L20.7667 14.0292C20.5625 14.2333 20.4458 14.6271 20.5188 14.9188L20.8688 16.4208C21.1458 17.6021 20.5188 18.0688 19.4688 17.4417L18.0104 16.5813C17.8623 16.5022 17.697 16.4609 17.5292 16.4609C17.3613 16.4609 17.196 16.5022 17.0479 16.5813L15.5896 17.4417C14.5396 18.0542 13.9125 17.6021 14.1896 16.4208L14.5396 14.9188C14.5979 14.6417 14.4958 14.2333 14.2917 14.0292L13.0813 12.8188C12.3667 12.1042 12.6 11.3896 13.5917 11.2146L15.1521 10.9521C15.4146 10.9083 15.7208 10.675 15.8375 10.4417L16.6979 8.72084C17.1208 7.78751 17.8792 7.78751 18.3458 8.72084V8.72084Z" stroke="#F2CF8D" stroke-width="1.5" stroke-linecap="round" stroke-linejoin="round"/>
</svg>
