<svg width="35" height="36" viewBox="0 0 35 36" fill="none" xmlns="http://www.w3.org/2000/svg">
<path d="M26.5957 16.0358V22.4427C26.5957 22.8592 26.5797 23.2596 26.5316 23.644C26.1632 27.9687 23.6165 30.115 18.9234 30.115H18.2827C17.8823 30.115 17.4978 30.3073 17.2576 30.6276L15.3355 33.1904C14.4866 34.3276 13.1091 34.3276 12.2602 33.1904L10.3381 30.6276C10.2099 30.4783 10.0532 30.3561 9.87717 30.2681C9.70116 30.1801 9.50935 30.128 9.31299 30.115H8.6723C3.56277 30.115 1 28.8497 1 22.4427V16.0358C1 11.3427 3.16234 8.79599 7.471 8.42759C7.85541 8.37954 8.25585 8.36353 8.6723 8.36353H18.9234C24.0329 8.36353 26.5957 10.9263 26.5957 16.0358Z" stroke="#F2CF8D" stroke-width="2" stroke-miterlimit="10" stroke-linecap="round" stroke-linejoin="round"/>
<path d="M33.0023 9.62896V16.0359C33.0023 20.745 30.84 23.2757 26.5313 23.6441C26.5794 23.2597 26.5954 22.8593 26.5954 22.4428V16.0359C26.5954 10.9264 24.0326 8.36359 18.9231 8.36359H8.672C8.25555 8.36359 7.85512 8.37961 7.4707 8.42766C7.8391 4.119 10.3859 1.95667 15.0789 1.95667H25.33C30.4395 1.95667 33.0023 4.51944 33.0023 9.62896V9.62896Z" stroke="#F2CF8D" stroke-width="2" stroke-miterlimit="10" stroke-linecap="round" stroke-linejoin="round"/>
<path d="M18.6194 19.6018H18.6354M13.0133 19.6018H13.0293M7.40723 19.6018H7.42324" stroke="#F2CF8D" stroke-width="2" stroke-linecap="round" stroke-linejoin="round"/>
</svg>
