<svg width="113" height="70" viewBox="0 0 113 70" fill="none" xmlns="http://www.w3.org/2000/svg">
<path d="M65.9713 25.7858V31.4525C65.9713 31.8208 65.9572 32.175 65.9147 32.515C65.5888 36.34 63.3363 38.2383 59.1855 38.2383H58.6188C58.2647 38.2383 57.9247 38.4083 57.7122 38.6917L56.0122 40.9583C55.2613 41.9642 54.043 41.9642 53.2922 40.9583L51.5922 38.6917C51.4788 38.5596 51.3402 38.4515 51.1845 38.3737C51.0288 38.2958 50.8592 38.2498 50.6855 38.2383H50.1188C45.5997 38.2383 43.333 37.1192 43.333 31.4525V25.7858C43.333 21.635 45.2455 19.3825 49.0563 19.0567C49.3963 19.0142 49.7505 19 50.1188 19H59.1855C63.7047 19 65.9713 21.2667 65.9713 25.7858Z" stroke="#F2CF8D" stroke-width="2" stroke-miterlimit="10" stroke-linecap="round" stroke-linejoin="round"/>
<path d="M71.6383 20.1192V25.7859C71.6383 29.9509 69.7258 32.1892 65.915 32.515C65.9575 32.175 65.9716 31.8209 65.9716 31.4525V25.7859C65.9716 21.2667 63.705 19 59.1858 19H50.1191C49.7508 19 49.3966 19.0142 49.0566 19.0567C49.3825 15.2459 51.635 13.3334 55.7858 13.3334H64.8525C69.3716 13.3334 71.6383 15.6 71.6383 20.1192V20.1192Z" stroke="#F2CF8D" stroke-width="2" stroke-miterlimit="10" stroke-linecap="round" stroke-linejoin="round"/>
<path d="M59.6178 29.2709H59.632M54.6595 29.2709H54.6737M49.7012 29.2709H49.7153" stroke="#F2CF8D" stroke-width="2" stroke-linecap="round" stroke-linejoin="round"/>
<path d="M37.5588 56.5L37.5468 50.932L34.7868 55.54H34.0908L31.3308 51.004V56.5H29.8428V48.1H31.1268L34.4628 53.668L37.7388 48.1H39.0228L39.0348 56.5H37.5588ZM47.1838 53.332C47.1838 53.436 47.1758 53.584 47.1598 53.776H42.1318C42.2198 54.248 42.4478 54.624 42.8158 54.904C43.1918 55.176 43.6558 55.312 44.2078 55.312C44.9118 55.312 45.4918 55.08 45.9478 54.616L46.7518 55.54C46.4638 55.884 46.0998 56.144 45.6598 56.32C45.2198 56.496 44.7238 56.584 44.1718 56.584C43.4678 56.584 42.8478 56.444 42.3118 56.164C41.7758 55.884 41.3598 55.496 41.0638 55C40.7758 54.496 40.6318 53.928 40.6318 53.296C40.6318 52.672 40.7718 52.112 41.0518 51.616C41.3398 51.112 41.7358 50.72 42.2398 50.44C42.7438 50.16 43.3118 50.02 43.9438 50.02C44.5678 50.02 45.1238 50.16 45.6118 50.44C46.1078 50.712 46.4918 51.1 46.7638 51.604C47.0438 52.1 47.1838 52.676 47.1838 53.332ZM43.9438 51.22C43.4638 51.22 43.0558 51.364 42.7198 51.652C42.3918 51.932 42.1918 52.308 42.1198 52.78H45.7558C45.6918 52.316 45.4958 51.94 45.1678 51.652C44.8398 51.364 44.4318 51.22 43.9438 51.22ZM52.2606 50.02C53.0686 50.02 53.7166 50.256 54.2046 50.728C54.6926 51.2 54.9366 51.9 54.9366 52.828V56.5H53.4366V53.02C53.4366 52.46 53.3046 52.04 53.0406 51.76C52.7766 51.472 52.4006 51.328 51.9126 51.328C51.3606 51.328 50.9246 51.496 50.6046 51.832C50.2846 52.16 50.1246 52.636 50.1246 53.26V56.5H48.6246V50.092H50.0526V50.92C50.3006 50.624 50.6126 50.4 50.9886 50.248C51.3646 50.096 51.7886 50.02 52.2606 50.02ZM58.8195 56.584C58.2995 56.584 57.7915 56.516 57.2955 56.38C56.7995 56.244 56.4035 56.072 56.1075 55.864L56.6835 54.724C56.9715 54.916 57.3155 55.072 57.7155 55.192C58.1235 55.304 58.5235 55.36 58.9155 55.36C59.8115 55.36 60.2595 55.124 60.2595 54.652C60.2595 54.428 60.1435 54.272 59.9115 54.184C59.6875 54.096 59.3235 54.012 58.8195 53.932C58.2915 53.852 57.8595 53.76 57.5235 53.656C57.1955 53.552 56.9075 53.372 56.6595 53.116C56.4195 52.852 56.2995 52.488 56.2995 52.024C56.2995 51.416 56.5515 50.932 57.0555 50.572C57.5675 50.204 58.2555 50.02 59.1195 50.02C59.5595 50.02 59.9995 50.072 60.4395 50.176C60.8795 50.272 61.2395 50.404 61.5195 50.572L60.9435 51.712C60.3995 51.392 59.7875 51.232 59.1075 51.232C58.6675 51.232 58.3315 51.3 58.0995 51.436C57.8755 51.564 57.7635 51.736 57.7635 51.952C57.7635 52.192 57.8835 52.364 58.1235 52.468C58.3715 52.564 58.7515 52.656 59.2635 52.744C59.7755 52.824 60.1955 52.916 60.5235 53.02C60.8515 53.124 61.1315 53.3 61.3635 53.548C61.6035 53.796 61.7235 54.148 61.7235 54.604C61.7235 55.204 61.4635 55.684 60.9435 56.044C60.4235 56.404 59.7155 56.584 58.8195 56.584ZM65.4633 50.02C66.4073 50.02 67.1273 50.248 67.6233 50.704C68.1273 51.152 68.3793 51.832 68.3793 52.744V56.5H66.9633V55.72C66.7793 56 66.5153 56.216 66.1713 56.368C65.8353 56.512 65.4273 56.584 64.9473 56.584C64.4673 56.584 64.0473 56.504 63.6873 56.344C63.3273 56.176 63.0473 55.948 62.8473 55.66C62.6553 55.364 62.5593 55.032 62.5593 54.664C62.5593 54.088 62.7713 53.628 63.1953 53.284C63.6273 52.932 64.3033 52.756 65.2233 52.756H66.8793V52.66C66.8793 52.212 66.7433 51.868 66.4713 51.628C66.2073 51.388 65.8113 51.268 65.2833 51.268C64.9233 51.268 64.5673 51.324 64.2153 51.436C63.8713 51.548 63.5793 51.704 63.3393 51.904L62.7513 50.812C63.0873 50.556 63.4913 50.36 63.9633 50.224C64.4353 50.088 64.9353 50.02 65.4633 50.02ZM65.2593 55.492C65.6353 55.492 65.9673 55.408 66.2553 55.24C66.5513 55.064 66.7593 54.816 66.8793 54.496V53.752H65.3313C64.4673 53.752 64.0353 54.036 64.0353 54.604C64.0353 54.876 64.1433 55.092 64.3593 55.252C64.5753 55.412 64.8753 55.492 65.2593 55.492ZM69.6443 58.912C69.0123 58.912 68.5323 58.788 68.2043 58.54L68.6363 57.424C68.8603 57.592 69.1523 57.676 69.5123 57.676C69.7923 57.676 70.0043 57.588 70.1483 57.412C70.3003 57.244 70.3763 56.992 70.3763 56.656V50.092H71.8763V56.62C71.8763 57.332 71.6803 57.892 71.2883 58.3C70.8963 58.708 70.3483 58.912 69.6443 58.912ZM71.1203 49.036C70.8483 49.036 70.6203 48.952 70.4363 48.784C70.2523 48.608 70.1603 48.392 70.1603 48.136C70.1603 47.88 70.2523 47.668 70.4363 47.5C70.6203 47.324 70.8483 47.236 71.1203 47.236C71.3923 47.236 71.6203 47.32 71.8043 47.488C71.9883 47.648 72.0803 47.852 72.0803 48.1C72.0803 48.364 71.9883 48.588 71.8043 48.772C71.6283 48.948 71.4003 49.036 71.1203 49.036ZM79.8674 53.332C79.8674 53.436 79.8594 53.584 79.8434 53.776H74.8154C74.9034 54.248 75.1314 54.624 75.4994 54.904C75.8754 55.176 76.3394 55.312 76.8914 55.312C77.5954 55.312 78.1754 55.08 78.6314 54.616L79.4354 55.54C79.1474 55.884 78.7834 56.144 78.3434 56.32C77.9034 56.496 77.4074 56.584 76.8554 56.584C76.1514 56.584 75.5314 56.444 74.9954 56.164C74.4594 55.884 74.0434 55.496 73.7474 55C73.4594 54.496 73.3154 53.928 73.3154 53.296C73.3154 52.672 73.4554 52.112 73.7354 51.616C74.0234 51.112 74.4194 50.72 74.9234 50.44C75.4274 50.16 75.9954 50.02 76.6274 50.02C77.2514 50.02 77.8074 50.16 78.2954 50.44C78.7914 50.712 79.1754 51.1 79.4474 51.604C79.7274 52.1 79.8674 52.676 79.8674 53.332ZM76.6274 51.22C76.1474 51.22 75.7394 51.364 75.4034 51.652C75.0754 51.932 74.8754 52.308 74.8034 52.78H78.4394C78.3754 52.316 78.1794 51.94 77.8514 51.652C77.5234 51.364 77.1154 51.22 76.6274 51.22ZM83.2882 56.584C82.7682 56.584 82.2602 56.516 81.7642 56.38C81.2682 56.244 80.8722 56.072 80.5762 55.864L81.1522 54.724C81.4402 54.916 81.7842 55.072 82.1842 55.192C82.5922 55.304 82.9922 55.36 83.3842 55.36C84.2802 55.36 84.7282 55.124 84.7282 54.652C84.7282 54.428 84.6122 54.272 84.3802 54.184C84.1562 54.096 83.7922 54.012 83.2882 53.932C82.7602 53.852 82.3282 53.76 81.9922 53.656C81.6642 53.552 81.3762 53.372 81.1282 53.116C80.8882 52.852 80.7682 52.488 80.7682 52.024C80.7682 51.416 81.0202 50.932 81.5242 50.572C82.0362 50.204 82.7242 50.02 83.5882 50.02C84.0282 50.02 84.4682 50.072 84.9082 50.176C85.3482 50.272 85.7082 50.404 85.9882 50.572L85.4122 51.712C84.8682 51.392 84.2562 51.232 83.5762 51.232C83.1362 51.232 82.8002 51.3 82.5682 51.436C82.3442 51.564 82.2322 51.736 82.2322 51.952C82.2322 52.192 82.3522 52.364 82.5922 52.468C82.8402 52.564 83.2202 52.656 83.7322 52.744C84.2442 52.824 84.6642 52.916 84.9922 53.02C85.3202 53.124 85.6002 53.3 85.8322 53.548C86.0722 53.796 86.1922 54.148 86.1922 54.604C86.1922 55.204 85.9322 55.684 85.4122 56.044C84.8922 56.404 84.1842 56.584 83.2882 56.584Z" fill="#F2CF8D"/>
<line x1="110.5" y1="70" x2="110.5" y2="-1.09278e-07" stroke="#F2CF8D" stroke-width="5"/>
</svg>
