<svg width="113" height="70" viewBox="0 0 113 70" fill="none" xmlns="http://www.w3.org/2000/svg">
<path d="M63.48 26.29V30.29C63.48 30.55 63.47 30.8 63.44 31.04C63.21 33.74 61.62 35.08 58.69 35.08H58.29C58.04 35.08 57.8 35.2 57.65 35.4L56.45 37C55.92 37.71 55.06 37.71 54.53 37L53.33 35.4C53.25 35.3068 53.1521 35.2305 53.0422 35.1755C52.9323 35.1206 52.8126 35.0881 52.69 35.08H52.29C49.1 35.08 47.5 34.29 47.5 30.29V26.29C47.5 23.36 48.85 21.77 51.54 21.54C51.78 21.51 52.03 21.5 52.29 21.5H58.69C61.88 21.5 63.48 23.1 63.48 26.29Z" stroke="white" stroke-width="2" stroke-miterlimit="10" stroke-linecap="round" stroke-linejoin="round"/>
<path d="M67.48 22.29V26.29C67.48 29.23 66.13 30.81 63.44 31.04C63.47 30.8 63.48 30.55 63.48 30.29V26.29C63.48 23.1 61.88 21.5 58.69 21.5H52.29C52.03 21.5 51.78 21.51 51.54 21.54C51.77 18.85 53.36 17.5 56.29 17.5H62.69C65.88 17.5 67.48 19.1 67.48 22.29V22.29Z" stroke="white" stroke-width="2" stroke-miterlimit="10" stroke-linecap="round" stroke-linejoin="round"/>
<path d="M58.9951 28.75H59.0051M55.4951 28.75H55.5051M51.9951 28.75H52.0051" stroke="white" stroke-width="2" stroke-linecap="round" stroke-linejoin="round"/>
<path d="M37.5588 51.5L37.5468 45.932L34.7868 50.54H34.0908L31.3308 46.004V51.5H29.8428V43.1H31.1268L34.4628 48.668L37.7388 43.1H39.0228L39.0348 51.5H37.5588ZM47.1838 48.332C47.1838 48.436 47.1758 48.584 47.1598 48.776H42.1318C42.2198 49.248 42.4478 49.624 42.8158 49.904C43.1918 50.176 43.6558 50.312 44.2078 50.312C44.9118 50.312 45.4918 50.08 45.9478 49.616L46.7518 50.54C46.4638 50.884 46.0998 51.144 45.6598 51.32C45.2198 51.496 44.7238 51.584 44.1718 51.584C43.4678 51.584 42.8478 51.444 42.3118 51.164C41.7758 50.884 41.3598 50.496 41.0638 50C40.7758 49.496 40.6318 48.928 40.6318 48.296C40.6318 47.672 40.7718 47.112 41.0518 46.616C41.3398 46.112 41.7358 45.72 42.2398 45.44C42.7438 45.16 43.3118 45.02 43.9438 45.02C44.5678 45.02 45.1238 45.16 45.6118 45.44C46.1078 45.712 46.4918 46.1 46.7638 46.604C47.0438 47.1 47.1838 47.676 47.1838 48.332ZM43.9438 46.22C43.4638 46.22 43.0558 46.364 42.7198 46.652C42.3918 46.932 42.1918 47.308 42.1198 47.78H45.7558C45.6918 47.316 45.4958 46.94 45.1678 46.652C44.8398 46.364 44.4318 46.22 43.9438 46.22ZM52.2606 45.02C53.0686 45.02 53.7166 45.256 54.2046 45.728C54.6926 46.2 54.9366 46.9 54.9366 47.828V51.5H53.4366V48.02C53.4366 47.46 53.3046 47.04 53.0406 46.76C52.7766 46.472 52.4006 46.328 51.9126 46.328C51.3606 46.328 50.9246 46.496 50.6046 46.832C50.2846 47.16 50.1246 47.636 50.1246 48.26V51.5H48.6246V45.092H50.0526V45.92C50.3006 45.624 50.6126 45.4 50.9886 45.248C51.3646 45.096 51.7886 45.02 52.2606 45.02ZM58.8195 51.584C58.2995 51.584 57.7915 51.516 57.2955 51.38C56.7995 51.244 56.4035 51.072 56.1075 50.864L56.6835 49.724C56.9715 49.916 57.3155 50.072 57.7155 50.192C58.1235 50.304 58.5235 50.36 58.9155 50.36C59.8115 50.36 60.2595 50.124 60.2595 49.652C60.2595 49.428 60.1435 49.272 59.9115 49.184C59.6875 49.096 59.3235 49.012 58.8195 48.932C58.2915 48.852 57.8595 48.76 57.5235 48.656C57.1955 48.552 56.9075 48.372 56.6595 48.116C56.4195 47.852 56.2995 47.488 56.2995 47.024C56.2995 46.416 56.5515 45.932 57.0555 45.572C57.5675 45.204 58.2555 45.02 59.1195 45.02C59.5595 45.02 59.9995 45.072 60.4395 45.176C60.8795 45.272 61.2395 45.404 61.5195 45.572L60.9435 46.712C60.3995 46.392 59.7875 46.232 59.1075 46.232C58.6675 46.232 58.3315 46.3 58.0995 46.436C57.8755 46.564 57.7635 46.736 57.7635 46.952C57.7635 47.192 57.8835 47.364 58.1235 47.468C58.3715 47.564 58.7515 47.656 59.2635 47.744C59.7755 47.824 60.1955 47.916 60.5235 48.02C60.8515 48.124 61.1315 48.3 61.3635 48.548C61.6035 48.796 61.7235 49.148 61.7235 49.604C61.7235 50.204 61.4635 50.684 60.9435 51.044C60.4235 51.404 59.7155 51.584 58.8195 51.584ZM65.4633 45.02C66.4073 45.02 67.1273 45.248 67.6233 45.704C68.1273 46.152 68.3793 46.832 68.3793 47.744V51.5H66.9633V50.72C66.7793 51 66.5153 51.216 66.1713 51.368C65.8353 51.512 65.4273 51.584 64.9473 51.584C64.4673 51.584 64.0473 51.504 63.6873 51.344C63.3273 51.176 63.0473 50.948 62.8473 50.66C62.6553 50.364 62.5593 50.032 62.5593 49.664C62.5593 49.088 62.7713 48.628 63.1953 48.284C63.6273 47.932 64.3033 47.756 65.2233 47.756H66.8793V47.66C66.8793 47.212 66.7433 46.868 66.4713 46.628C66.2073 46.388 65.8113 46.268 65.2833 46.268C64.9233 46.268 64.5673 46.324 64.2153 46.436C63.8713 46.548 63.5793 46.704 63.3393 46.904L62.7513 45.812C63.0873 45.556 63.4913 45.36 63.9633 45.224C64.4353 45.088 64.9353 45.02 65.4633 45.02ZM65.2593 50.492C65.6353 50.492 65.9673 50.408 66.2553 50.24C66.5513 50.064 66.7593 49.816 66.8793 49.496V48.752H65.3313C64.4673 48.752 64.0353 49.036 64.0353 49.604C64.0353 49.876 64.1433 50.092 64.3593 50.252C64.5753 50.412 64.8753 50.492 65.2593 50.492ZM69.6443 53.912C69.0123 53.912 68.5323 53.788 68.2043 53.54L68.6363 52.424C68.8603 52.592 69.1523 52.676 69.5123 52.676C69.7923 52.676 70.0043 52.588 70.1483 52.412C70.3003 52.244 70.3763 51.992 70.3763 51.656V45.092H71.8763V51.62C71.8763 52.332 71.6803 52.892 71.2883 53.3C70.8963 53.708 70.3483 53.912 69.6443 53.912ZM71.1203 44.036C70.8483 44.036 70.6203 43.952 70.4363 43.784C70.2523 43.608 70.1603 43.392 70.1603 43.136C70.1603 42.88 70.2523 42.668 70.4363 42.5C70.6203 42.324 70.8483 42.236 71.1203 42.236C71.3923 42.236 71.6203 42.32 71.8043 42.488C71.9883 42.648 72.0803 42.852 72.0803 43.1C72.0803 43.364 71.9883 43.588 71.8043 43.772C71.6283 43.948 71.4003 44.036 71.1203 44.036ZM79.8674 48.332C79.8674 48.436 79.8594 48.584 79.8434 48.776H74.8154C74.9034 49.248 75.1314 49.624 75.4994 49.904C75.8754 50.176 76.3394 50.312 76.8914 50.312C77.5954 50.312 78.1754 50.08 78.6314 49.616L79.4354 50.54C79.1474 50.884 78.7834 51.144 78.3434 51.32C77.9034 51.496 77.4074 51.584 76.8554 51.584C76.1514 51.584 75.5314 51.444 74.9954 51.164C74.4594 50.884 74.0434 50.496 73.7474 50C73.4594 49.496 73.3154 48.928 73.3154 48.296C73.3154 47.672 73.4554 47.112 73.7354 46.616C74.0234 46.112 74.4194 45.72 74.9234 45.44C75.4274 45.16 75.9954 45.02 76.6274 45.02C77.2514 45.02 77.8074 45.16 78.2954 45.44C78.7914 45.712 79.1754 46.1 79.4474 46.604C79.7274 47.1 79.8674 47.676 79.8674 48.332ZM76.6274 46.22C76.1474 46.22 75.7394 46.364 75.4034 46.652C75.0754 46.932 74.8754 47.308 74.8034 47.78H78.4394C78.3754 47.316 78.1794 46.94 77.8514 46.652C77.5234 46.364 77.1154 46.22 76.6274 46.22ZM83.2882 51.584C82.7682 51.584 82.2602 51.516 81.7642 51.38C81.2682 51.244 80.8722 51.072 80.5762 50.864L81.1522 49.724C81.4402 49.916 81.7842 50.072 82.1842 50.192C82.5922 50.304 82.9922 50.36 83.3842 50.36C84.2802 50.36 84.7282 50.124 84.7282 49.652C84.7282 49.428 84.6122 49.272 84.3802 49.184C84.1562 49.096 83.7922 49.012 83.2882 48.932C82.7602 48.852 82.3282 48.76 81.9922 48.656C81.6642 48.552 81.3762 48.372 81.1282 48.116C80.8882 47.852 80.7682 47.488 80.7682 47.024C80.7682 46.416 81.0202 45.932 81.5242 45.572C82.0362 45.204 82.7242 45.02 83.5882 45.02C84.0282 45.02 84.4682 45.072 84.9082 45.176C85.3482 45.272 85.7082 45.404 85.9882 45.572L85.4122 46.712C84.8682 46.392 84.2562 46.232 83.5762 46.232C83.1362 46.232 82.8002 46.3 82.5682 46.436C82.3442 46.564 82.2322 46.736 82.2322 46.952C82.2322 47.192 82.3522 47.364 82.5922 47.468C82.8402 47.564 83.2202 47.656 83.7322 47.744C84.2442 47.824 84.6642 47.916 84.9922 48.02C85.3202 48.124 85.6002 48.3 85.8322 48.548C86.0722 48.796 86.1922 49.148 86.1922 49.604C86.1922 50.204 85.9322 50.684 85.4122 51.044C84.8922 51.404 84.1842 51.584 83.2882 51.584Z" fill="white"/>
</svg>
