<svg width="34" height="34" viewBox="0 0 34 34" fill="none" xmlns="http://www.w3.org/2000/svg">
<path d="M23.2812 15.7143V19.908C23.2812 20.1806 23.2707 20.4427 23.2392 20.6944C22.9981 23.5251 21.3311 24.93 18.2592 24.93H17.8399C17.5777 24.93 17.3261 25.0558 17.1689 25.2655L15.9108 26.943C15.3551 27.6874 14.4534 27.6874 13.8978 26.943L12.6397 25.2655C12.5557 25.1678 12.4532 25.0878 12.338 25.0302C12.2227 24.9725 12.0972 24.9385 11.9687 24.93H11.5493C8.20482 24.93 6.52734 24.1017 6.52734 19.908V15.7143C6.52734 12.6425 7.94272 10.9755 10.763 10.7343C11.0146 10.7029 11.2767 10.6924 11.5493 10.6924H18.2592C21.6037 10.6924 23.2812 12.3699 23.2812 15.7143Z" stroke="white" stroke-width="2" stroke-miterlimit="10" stroke-linecap="round" stroke-linejoin="round"/>
<path d="M27.4746 11.5206V15.7143C27.4746 18.7967 26.0592 20.4532 23.239 20.6943C23.2704 20.4427 23.2809 20.1806 23.2809 19.908V15.7143C23.2809 12.3698 21.6034 10.6924 18.2589 10.6924H11.549C11.2764 10.6924 11.0143 10.7028 10.7627 10.7343C11.0038 7.91403 12.6708 6.49866 15.7427 6.49866H22.4526C25.7971 6.49866 27.4746 8.17614 27.4746 11.5206V11.5206Z" stroke="white" stroke-width="2" stroke-miterlimit="10" stroke-linecap="round" stroke-linejoin="round"/>
<path d="M18.0597 18.0487H18.0702M14.3902 18.0487H14.4007M10.7207 18.0487H10.7312" stroke="white" stroke-width="2" stroke-linecap="round" stroke-linejoin="round"/>
</svg>
