<svg width="204" height="177" viewBox="0 0 204 177" fill="none" xmlns="http://www.w3.org/2000/svg">
<g opacity="0.2">
<path d="M31.6085 138.212C32.7988 135.651 33.7201 133.034 34.3907 130.394C14.0756 118.078 0.5 95.7574 0.5 70.2646C0.5 31.4589 31.959 0 70.7646 0C109.57 0 141.029 31.4589 141.029 70.2646C141.029 109.07 109.57 140.529 70.7646 140.529C65.463 140.529 60.3034 139.937 55.3372 138.825C46.1871 150.223 31.9831 156.307 17.607 155.289C23.4553 151.014 28.337 145.245 31.6085 138.212Z" fill="#FED100"/>
<path d="M13.0183 77.1369C13.0183 42.8686 40.7979 15.086 75.0692 15.086C95.1004 15.086 112.911 24.5805 124.254 39.31C113.54 20.7078 93.457 8.1864 70.4504 8.1864C36.182 8.1864 8.39941 35.966 8.39941 70.2373C8.39941 84.4745 13.1995 97.591 21.2621 108.061C16.018 98.9594 13.0183 88.3986 13.0183 77.1369Z" fill="#FFDF5A"/>
<path d="M140.996 68.0503C140.993 68.005 140.993 67.9627 140.99 67.9204C140.159 43.6541 127 22.5203 107.582 10.5759C114.57 21.4811 118.621 34.4496 118.621 48.3635C118.621 87.1087 87.213 118.516 48.4678 118.516C35.013 118.516 22.4433 114.725 11.7646 108.158C17.4921 117.097 25.1923 124.646 34.2487 130.204C34.2306 130.228 34.2155 130.255 34.1974 130.279C34.2638 130.319 34.3242 130.361 34.3907 130.4C33.7201 133.041 32.7987 135.657 31.6085 138.218C28.3369 145.251 23.4583 151.021 17.61 155.298C31.9861 156.316 46.1901 150.232 55.3402 138.834C55.3764 138.844 55.4097 138.85 55.4459 138.856C55.4429 138.841 55.4398 138.828 55.4368 138.813C60.4061 139.931 65.5748 140.523 70.8793 140.523C84.4761 140.523 97.9249 136.505 109.289 129.041C119.312 122.459 127.592 113.308 133.13 102.669C137.486 94.3044 140.108 85.0787 140.827 75.6749C141.017 73.2129 141.077 70.5787 140.996 68.0503Z" fill="#FCC200"/>
<path d="M172.392 159.542C171.201 156.981 170.28 154.365 169.609 151.724C189.924 139.408 203.5 117.087 203.5 91.5947C203.5 52.789 172.041 21.3301 133.236 21.3301C94.4299 21.3301 62.9709 52.789 62.9709 91.5947C62.9709 130.4 94.4299 161.859 133.236 161.859C138.537 161.859 143.697 161.267 148.663 160.156C157.813 171.553 172.017 177.637 186.393 176.619C180.545 172.345 175.663 166.575 172.392 159.542Z" fill="#FCC200"/>
<path d="M172.392 159.542C171.208 156.996 170.289 154.392 169.619 151.767C189.928 139.475 203.5 117.178 203.5 91.7065C203.5 66.4191 190.118 44.2583 170.051 31.9152C177.038 42.8204 181.089 55.7888 181.089 69.7028C181.089 108.448 149.681 139.856 110.936 139.856C97.4813 139.856 84.9116 136.064 74.2329 129.497C86.6999 148.96 108.519 161.862 133.348 161.862C138.613 161.862 143.742 161.276 148.675 160.177C157.825 171.562 172.023 177.64 186.39 176.622C180.545 172.345 175.663 166.575 172.392 159.542Z" fill="#E2A700"/>
<path d="M75.4865 98.4793C75.4865 64.211 103.266 36.4284 137.537 36.4284C157.569 36.4284 175.379 45.9229 186.723 60.6525C176.008 42.0502 155.925 29.5288 132.919 29.5288C98.6503 29.5288 70.8677 57.3084 70.8677 91.5798C70.8677 105.817 75.6678 118.933 83.7304 129.404C78.4862 120.302 75.4865 109.741 75.4865 98.4793Z" fill="#FFDF5A"/>
<path d="M107.374 99.8083C111.018 99.8083 113.971 96.8545 113.971 93.2108C113.971 89.5671 111.018 86.6133 107.374 86.6133C103.73 86.6133 100.776 89.5671 100.776 93.2108C100.776 96.8545 103.73 99.8083 107.374 99.8083Z" fill="white"/>
<path d="M133.235 99.8083C136.879 99.8083 139.833 96.8545 139.833 93.2108C139.833 89.5671 136.879 86.6133 133.235 86.6133C129.592 86.6133 126.638 89.5671 126.638 93.2108C126.638 96.8545 129.592 99.8083 133.235 99.8083Z" fill="white"/>
<path d="M158.463 99.8083C162.106 99.8083 165.06 96.8545 165.06 93.2108C165.06 89.5671 162.106 86.6133 158.463 86.6133C154.819 86.6133 151.865 89.5671 151.865 93.2108C151.865 96.8545 154.819 99.8083 158.463 99.8083Z" fill="white"/>
</g>
</svg>
