<svg width="20" height="21" viewBox="0 0 20 21" fill="none" xmlns="http://www.w3.org/2000/svg">
<path d="M8.33337 16.3333C8.33337 17.25 9.08337 18 10 18C10.9167 18 11.6667 17.25 11.6667 16.3333C11.6667 15.4167 10.9167 14.6667 10 14.6667C9.08337 14.6667 8.33337 15.4167 8.33337 16.3333ZM8.33337 4.66667C8.33337 5.58333 9.08337 6.33333 10 6.33333C10.9167 6.33333 11.6667 5.58333 11.6667 4.66667C11.6667 3.75 10.9167 3 10 3C9.08337 3 8.33337 3.75 8.33337 4.66667ZM8.33337 10.5C8.33337 11.4167 9.08337 12.1667 10 12.1667C10.9167 12.1667 11.6667 11.4167 11.6667 10.5C11.6667 9.58333 10.9167 8.83333 10 8.83333C9.08337 8.83333 8.33337 9.58333 8.33337 10.5Z" stroke="white" stroke-width="1.5"/>
</svg>
