<svg width="34" height="35" viewBox="0 0 34 35" fill="none" xmlns="http://www.w3.org/2000/svg">
<rect y="0.625" width="34" height="34" rx="17" fill="url(#paint0_linear_731_3218)"/>
<path d="M17 7.625C15.1435 7.625 13.363 8.3625 12.0503 9.67525C10.7375 10.988 10 12.7685 10 14.625V20.625C10 22.4815 10.7375 24.262 12.0503 25.5747C13.363 26.8875 15.1435 27.625 17 27.625C18.8565 27.625 20.637 26.8875 21.9497 25.5747C23.2625 24.262 24 22.4815 24 20.625V14.625C24 12.7685 23.2625 10.988 21.9497 9.67525C20.637 8.3625 18.8565 7.625 17 7.625ZM12 14.625C11.9998 13.4723 12.3978 12.355 13.1267 11.4621C13.8556 10.5692 14.8706 9.95553 16 9.725V15.625H12V14.625ZM22 20.625C22 21.9511 21.4732 23.2229 20.5355 24.1605C19.5979 25.0982 18.3261 25.625 17 25.625C15.6739 25.625 14.4021 25.0982 13.4645 24.1605C12.5268 23.2229 12 21.9511 12 20.625V17.625H22V20.625ZM22 15.625H18V9.725C19.1294 9.95553 20.1444 10.5692 20.8733 11.4621C21.6022 12.355 22.0002 13.4723 22 14.625V15.625Z" fill="white"/>
<defs>
<linearGradient id="paint0_linear_731_3218" x1="19.6759" y1="-2.98106" x2="-4.58073" y2="3.27261" gradientUnits="userSpaceOnUse">
<stop stop-color="#F9A811"/>
<stop offset="1" stop-color="#B97900"/>
</linearGradient>
</defs>
</svg>
