<svg width="320" height="320" viewBox="0 0 320 320" fill="none" xmlns="http://www.w3.org/2000/svg">
<ellipse cx="160.19" cy="160.099" rx="111.19" ry="108.099" fill="white"/>
<path d="M94.8632 104.412C103.053 145.358 91.5876 148.634 137.88 133.513" stroke="#F2CF8D" stroke-width="6.55147"/>
<path d="M126.398 211.385C119.317 205.638 113.025 199.251 107.524 192.222C102.17 185.178 98.4264 178.563 96.2919 172.376L122.612 158.905C124.766 164.568 127.772 170.18 131.63 175.74C135.554 181.219 139.836 185.841 144.475 189.605C148.464 192.842 151.61 194.787 153.914 195.442C156.284 196.015 158.096 195.528 159.351 193.981C160.804 192.191 160.754 189.923 159.202 187.178C157.73 184.499 154.86 180.55 150.591 175.331C145.12 168.598 140.815 162.674 137.674 157.561C134.6 152.366 132.888 146.657 132.538 140.434C132.254 134.129 134.622 127.884 139.642 121.697C144.001 116.325 149.47 112.663 156.048 110.711C162.626 108.76 169.91 108.933 177.9 111.231C185.971 113.595 194.28 118.245 202.826 125.18C208.687 129.936 213.897 135.243 218.457 141.103C223.164 146.947 226.684 152.841 229.016 158.783L203.406 172.628C198.457 161.592 192.238 153.036 184.749 146.959C177.342 140.949 172.185 139.735 169.279 143.316C167.892 145.025 167.934 147.219 169.405 149.898C170.943 152.495 173.838 156.33 178.092 161.402C183.613 167.907 187.952 173.789 191.108 179.05C194.33 184.229 196.116 189.93 196.465 196.154C196.897 202.443 194.602 208.681 189.583 214.867C185.224 220.24 179.755 223.902 173.176 225.853C166.664 227.724 159.34 227.517 151.203 225.234C143.213 222.936 134.945 218.32 126.398 211.385Z" fill="black"/>
<path d="M175.855 130.513C176.42 132.902 174.941 135.294 172.554 135.858C170.165 136.423 167.772 134.944 167.208 132.557C166.643 130.169 168.122 127.776 170.509 127.212C172.896 126.647 175.29 128.126 175.855 130.513Z" fill="#129AD6"/>
<path d="M191.204 126.882C191.769 129.271 190.29 131.663 187.903 132.228C185.514 132.792 183.122 131.314 182.558 128.927C181.993 126.538 183.472 124.145 185.858 123.581C188.245 123.016 190.64 124.495 191.204 126.882Z" fill="#E03339"/>
<path d="M182.192 121.215C182.757 123.604 181.278 125.996 178.892 126.561C176.503 127.125 174.11 125.647 173.546 123.26C172.981 120.871 174.46 118.478 176.847 117.914C179.233 117.347 181.628 118.826 182.192 121.215Z" fill="#FCDD10"/>
<path d="M185.657 135.866C186.222 138.255 184.743 140.647 182.356 141.211C179.967 141.776 177.575 140.297 177.011 137.91C176.446 135.522 177.925 133.129 180.312 132.565C182.698 131.998 185.092 133.477 185.657 135.866Z" fill="#89C94E"/>
<circle cx="148.315" cy="190.523" r="16.0511" transform="rotate(-0.457124 148.315 190.523)" fill="black" stroke="white" stroke-width="0.655147"/>
<path d="M175.855 130.514C176.42 132.903 174.941 135.295 172.554 135.86C170.165 136.425 167.772 134.946 167.208 132.559C166.643 130.17 168.122 127.778 170.509 127.213C172.896 126.649 175.29 128.127 175.855 130.514Z" fill="#129AD6"/>
<path d="M191.204 126.883C191.769 129.272 190.29 131.665 187.903 132.229C185.514 132.794 183.122 131.315 182.558 128.928C181.993 126.539 183.472 124.147 185.858 123.582C188.245 123.018 190.64 124.496 191.204 126.883Z" fill="#E03339"/>
<path d="M182.192 121.216C182.757 123.605 181.278 125.998 178.892 126.562C176.503 127.127 174.11 125.648 173.546 123.261C172.981 120.872 174.46 118.48 176.847 117.915C179.233 117.349 181.628 118.827 182.192 121.216Z" fill="#F2CF8D"/>
<path d="M185.657 135.867C186.222 138.256 184.743 140.648 182.356 141.213C179.967 141.778 177.575 140.299 177.011 137.912C176.446 135.523 177.925 133.131 180.312 132.566C182.698 132 185.092 133.478 185.657 135.867Z" fill="#89C94E"/>
<circle cx="148.315" cy="190.523" r="16.0511" transform="rotate(-0.457124 148.315 190.523)" fill="black" stroke="white" stroke-width="0.655147"/>
<path d="M137.919 183.594C134.823 188.264 135.331 194.291 138.776 198.367C139.51 199.245 140.381 200.025 141.382 200.689C142.912 201.703 144.589 202.332 146.3 202.593C150.909 203.309 155.736 201.359 158.479 197.221C161.566 192.565 161.066 186.556 157.64 182.48C156.9 181.592 156.018 180.797 155.008 180.128C149.341 176.374 141.674 177.928 137.919 183.594ZM155.344 191.86C156.074 192.344 156.272 193.322 155.788 194.052L154.507 195.985C154.026 196.71 153.048 196.909 152.318 196.425L149.008 194.23L146.81 197.546C146.329 198.271 145.351 198.469 144.621 197.985L142.688 196.704C141.963 196.223 141.765 195.245 142.245 194.52L144.443 191.205L141.128 189.007C140.403 188.526 140.204 187.548 140.685 186.823L141.967 184.89C142.45 184.16 143.428 183.962 144.154 184.442L147.469 186.64L149.663 183.329C150.147 182.6 151.125 182.401 151.85 182.882L153.784 184.164C154.513 184.647 154.712 185.625 154.228 186.355L152.033 189.666L155.344 191.86Z" fill="white"/>
<path d="M90.0714 92.274C89.1593 92.4169 88.53 93.28 88.6728 94.192L89.7115 100.825L88.8824 100.955L89.4018 104.271L93.2377 107.069L93.4973 108.727L98.4721 107.948L98.2125 106.29L101.01 102.454L100.49 99.1371L99.6611 99.267L98.6224 92.6339C98.4796 91.7219 97.6248 91.0912 96.7044 91.2353M90.3311 93.9323L96.9641 92.8936L98.0029 99.5266L91.3698 100.565M91.5497 96.2899L91.8094 97.9481L93.4677 97.6885L93.208 96.0302M94.8663 95.7705L95.1259 97.4288L96.7842 97.1691L96.5245 95.5108L94.8663 95.7705Z" fill="#F2CF8D"/>
<path d="M222.044 39.8091L218.306 46.3506L217.838 46.3506L217.371 46.3506L209.665 56.2812L205.223 66.9096L208.026 79.9926C209.272 84.3536 211.764 93.2626 211.764 94.0102C211.764 94.7578 210.518 106.782 209.895 112.7L212.699 118.307L218.306 120.176L224.354 119.932L233.258 118.307L240.734 124.849L247.275 125.783L255.686 123.914L259.424 116.438L261.293 110.831L265.031 108.962L275.31 102.421L278.114 96.8137L277.179 91.2066L273.441 86.5341L265.031 79.0581L262.227 73.4511L258.489 61.3026L251.948 50.0886L243.537 45.4161L227.651 39.8091L222.044 39.8091Z" fill="url(#paint0_linear_1655_33359)" stroke="url(#paint1_linear_1655_33359)" stroke-width="1.63207"/>
<path d="M224.578 43.6614C210.338 48.2142 202.465 63.4873 207.018 77.7276L210.993 90.1611C211.832 92.7854 211.993 97.1441 211.374 99.8077L209.054 109.607C207.623 115.66 211.533 120.622 217.731 120.727C238.254 120.994 258.259 114.598 274.821 102.474C279.477 99.0887 279.79 92.2075 275.437 88.3829L267.863 81.7475C265.857 79.923 263.459 76.2795 262.62 73.6552L258.645 61.2217C254.106 47.0244 238.776 39.1222 224.578 43.6614Z" stroke="white" stroke-width="2.4481" stroke-miterlimit="10" stroke-linecap="round"/>
<path d="M232.938 42.3635C227.262 42.5451 221.749 44.3077 217.02 47.4528C217.25 43.8702 219.632 40.6427 223.246 39.4873C226.86 38.3319 230.673 39.5787 232.938 42.3635V42.3635Z" stroke="white" stroke-width="2.4481" stroke-miterlimit="10" stroke-linecap="round" stroke-linejoin="round"/>
<path d="M260.093 110.232C262.148 116.662 258.022 123.779 250.924 126.049C247.396 127.177 243.702 126.897 240.706 125.536C237.588 124.116 235.278 121.581 234.279 118.485" stroke="white" stroke-width="2.4481" stroke-miterlimit="10"/>
<defs>
<linearGradient id="paint0_linear_1655_33359" x1="247.405" y1="30.6906" x2="194.475" y2="42.2601" gradientUnits="userSpaceOnUse">
<stop stop-color="#F9A811"/>
<stop offset="1" stop-color="#B97900"/>
</linearGradient>
<linearGradient id="paint1_linear_1655_33359" x1="247.405" y1="30.6906" x2="194.475" y2="42.2601" gradientUnits="userSpaceOnUse">
<stop stop-color="#F9A811"/>
<stop offset="1" stop-color="#B97900"/>
</linearGradient>
</defs>
</svg>
