<svg width="113" height="70" viewBox="0 0 113 70" fill="none" xmlns="http://www.w3.org/2000/svg">
<path d="M57.5283 13.9141C52.8392 13.9141 49.0283 17.7249 49.0283 22.4141V26.5082C49.0283 27.3724 48.66 28.6899 48.2208 29.4266L46.5917 32.1324C45.5858 33.8041 46.28 35.6599 48.1217 36.2832C54.2275 38.3232 60.815 38.3232 66.9208 36.2832C68.635 35.7166 69.3858 33.6907 68.4508 32.1324L66.8217 29.4266C66.3967 28.6899 66.0283 27.3724 66.0283 26.5082V22.4141C66.0283 17.7391 62.2033 13.9141 57.5283 13.9141Z" stroke="#F2CF8D" stroke-width="1.5" stroke-miterlimit="10" stroke-linecap="round"/>
<path d="M60.1489 14.3249C58.4357 13.837 56.6204 13.837 54.9072 14.3249C55.3181 13.2766 56.3381 12.5399 57.5281 12.5399C58.7181 12.5399 59.7381 13.2766 60.1489 14.3249V14.3249Z" stroke="#F2CF8D" stroke-width="1.5" stroke-miterlimit="10" stroke-linecap="round" stroke-linejoin="round"/>
<path d="M61.7783 36.7935C61.7783 39.131 59.8658 41.0435 57.5283 41.0435C56.3667 41.0435 55.29 40.5618 54.525 39.7968C53.729 38.9996 53.2809 37.9199 53.2783 36.7935" stroke="#F2CF8D" stroke-width="1.5" stroke-miterlimit="10"/>
<path d="M21.8186 48.1V56.5H20.5346L15.9026 50.812V56.5H14.3546V48.1H15.6386L20.2706 53.788V48.1H21.8186ZM26.8054 56.584C26.1574 56.584 25.5734 56.444 25.0534 56.164C24.5334 55.884 24.1254 55.496 23.8294 55C23.5414 54.496 23.3974 53.928 23.3974 53.296C23.3974 52.664 23.5414 52.1 23.8294 51.604C24.1254 51.108 24.5334 50.72 25.0534 50.44C25.5734 50.16 26.1574 50.02 26.8054 50.02C27.4614 50.02 28.0494 50.16 28.5694 50.44C29.0894 50.72 29.4934 51.108 29.7814 51.604C30.0774 52.1 30.2254 52.664 30.2254 53.296C30.2254 53.928 30.0774 54.496 29.7814 55C29.4934 55.496 29.0894 55.884 28.5694 56.164C28.0494 56.444 27.4614 56.584 26.8054 56.584ZM26.8054 55.3C27.3574 55.3 27.8134 55.116 28.1734 54.748C28.5334 54.38 28.7134 53.896 28.7134 53.296C28.7134 52.696 28.5334 52.212 28.1734 51.844C27.8134 51.476 27.3574 51.292 26.8054 51.292C26.2534 51.292 25.7974 51.476 25.4374 51.844C25.0854 52.212 24.9094 52.696 24.9094 53.296C24.9094 53.896 25.0854 54.38 25.4374 54.748C25.7974 55.116 26.2534 55.3 26.8054 55.3ZM35.5118 56.152C35.3358 56.296 35.1198 56.404 34.8638 56.476C34.6158 56.548 34.3518 56.584 34.0718 56.584C33.3678 56.584 32.8238 56.4 32.4398 56.032C32.0558 55.664 31.8638 55.128 31.8638 54.424V51.34H30.8078V50.14H31.8638V48.676H33.3638V50.14H35.0798V51.34H33.3638V54.388C33.3638 54.7 33.4398 54.94 33.5918 55.108C33.7438 55.268 33.9638 55.348 34.2518 55.348C34.5878 55.348 34.8678 55.26 35.0918 55.084L35.5118 56.152ZM36.7457 50.092H38.2457V56.5H36.7457V50.092ZM37.5017 49.036C37.2297 49.036 37.0017 48.952 36.8177 48.784C36.6337 48.608 36.5417 48.392 36.5417 48.136C36.5417 47.88 36.6337 47.668 36.8177 47.5C37.0017 47.324 37.2297 47.236 37.5017 47.236C37.7737 47.236 38.0017 47.32 38.1857 47.488C38.3697 47.648 38.4617 47.852 38.4617 48.1C38.4617 48.364 38.3697 48.588 38.1857 48.772C38.0097 48.948 37.7817 49.036 37.5017 49.036ZM42.8185 48.724C42.1865 48.724 41.8705 49.068 41.8705 49.756V50.14H43.6345V51.34H41.9185V56.5H40.4185V51.34H39.3625V50.14H40.4185V49.732C40.4185 49.044 40.6185 48.504 41.0185 48.112C41.4185 47.712 41.9825 47.512 42.7105 47.512C43.2865 47.512 43.7385 47.628 44.0665 47.86L43.6465 48.988C43.3905 48.812 43.1145 48.724 42.8185 48.724ZM45.6025 50.092H47.1025V56.5H45.6025V50.092ZM46.3585 49.036C46.0865 49.036 45.8585 48.952 45.6745 48.784C45.4905 48.608 45.3985 48.392 45.3985 48.136C45.3985 47.88 45.4905 47.668 45.6745 47.5C45.8585 47.324 46.0865 47.236 46.3585 47.236C46.6305 47.236 46.8585 47.32 47.0425 47.488C47.2265 47.648 47.3185 47.852 47.3185 48.1C47.3185 48.364 47.2265 48.588 47.0425 48.772C46.8665 48.948 46.6385 49.036 46.3585 49.036ZM52.0138 56.584C51.3498 56.584 50.7538 56.444 50.2258 56.164C49.6978 55.884 49.2858 55.496 48.9898 55C48.6938 54.496 48.5458 53.928 48.5458 53.296C48.5458 52.664 48.6938 52.1 48.9898 51.604C49.2858 51.108 49.6938 50.72 50.2138 50.44C50.7418 50.16 51.3418 50.02 52.0138 50.02C52.6458 50.02 53.1978 50.148 53.6698 50.404C54.1498 50.66 54.5098 51.028 54.7498 51.508L53.5978 52.18C53.4138 51.884 53.1818 51.664 52.9018 51.52C52.6298 51.368 52.3298 51.292 52.0018 51.292C51.4418 51.292 50.9778 51.476 50.6098 51.844C50.2418 52.204 50.0578 52.688 50.0578 53.296C50.0578 53.904 50.2378 54.392 50.5978 54.76C50.9658 55.12 51.4338 55.3 52.0018 55.3C52.3298 55.3 52.6298 55.228 52.9018 55.084C53.1818 54.932 53.4138 54.708 53.5978 54.412L54.7498 55.084C54.5018 55.564 54.1378 55.936 53.6578 56.2C53.1858 56.456 52.6378 56.584 52.0138 56.584ZM58.4945 50.02C59.4385 50.02 60.1585 50.248 60.6545 50.704C61.1585 51.152 61.4105 51.832 61.4105 52.744V56.5H59.9945V55.72C59.8105 56 59.5465 56.216 59.2025 56.368C58.8665 56.512 58.4585 56.584 57.9785 56.584C57.4985 56.584 57.0785 56.504 56.7185 56.344C56.3585 56.176 56.0785 55.948 55.8785 55.66C55.6865 55.364 55.5905 55.032 55.5905 54.664C55.5905 54.088 55.8025 53.628 56.2265 53.284C56.6585 52.932 57.3345 52.756 58.2545 52.756H59.9105V52.66C59.9105 52.212 59.7745 51.868 59.5025 51.628C59.2385 51.388 58.8425 51.268 58.3145 51.268C57.9545 51.268 57.5985 51.324 57.2465 51.436C56.9025 51.548 56.6105 51.704 56.3705 51.904L55.7825 50.812C56.1185 50.556 56.5225 50.36 56.9945 50.224C57.4665 50.088 57.9665 50.02 58.4945 50.02ZM58.2905 55.492C58.6665 55.492 58.9985 55.408 59.2865 55.24C59.5825 55.064 59.7905 54.816 59.9105 54.496V53.752H58.3625C57.4985 53.752 57.0665 54.036 57.0665 54.604C57.0665 54.876 57.1745 55.092 57.3905 55.252C57.6065 55.412 57.9065 55.492 58.2905 55.492ZM66.3342 56.584C65.6702 56.584 65.0742 56.444 64.5462 56.164C64.0182 55.884 63.6062 55.496 63.3102 55C63.0142 54.496 62.8662 53.928 62.8662 53.296C62.8662 52.664 63.0142 52.1 63.3102 51.604C63.6062 51.108 64.0142 50.72 64.5342 50.44C65.0622 50.16 65.6622 50.02 66.3342 50.02C66.9662 50.02 67.5182 50.148 67.9902 50.404C68.4702 50.66 68.8302 51.028 69.0702 51.508L67.9182 52.18C67.7342 51.884 67.5022 51.664 67.2222 51.52C66.9502 51.368 66.6502 51.292 66.3222 51.292C65.7622 51.292 65.2982 51.476 64.9302 51.844C64.5622 52.204 64.3782 52.688 64.3782 53.296C64.3782 53.904 64.5582 54.392 64.9182 54.76C65.2862 55.12 65.7542 55.3 66.3222 55.3C66.6502 55.3 66.9502 55.228 67.2222 55.084C67.5022 54.932 67.7342 54.708 67.9182 54.412L69.0702 55.084C68.8222 55.564 68.4582 55.936 67.9782 56.2C67.5062 56.456 66.9582 56.584 66.3342 56.584ZM70.3668 50.092H71.8668V56.5H70.3668V50.092ZM71.1228 49.036C70.8508 49.036 70.6228 48.952 70.4388 48.784C70.2548 48.608 70.1628 48.392 70.1628 48.136C70.1628 47.88 70.2548 47.668 70.4388 47.5C70.6228 47.324 70.8508 47.236 71.1228 47.236C71.3948 47.236 71.6228 47.32 71.8068 47.488C71.9908 47.648 72.0828 47.852 72.0828 48.1C72.0828 48.364 71.9908 48.588 71.8068 48.772C71.6308 48.948 71.4028 49.036 71.1228 49.036ZM76.7156 56.584C76.0676 56.584 75.4836 56.444 74.9636 56.164C74.4436 55.884 74.0356 55.496 73.7396 55C73.4516 54.496 73.3076 53.928 73.3076 53.296C73.3076 52.664 73.4516 52.1 73.7396 51.604C74.0356 51.108 74.4436 50.72 74.9636 50.44C75.4836 50.16 76.0676 50.02 76.7156 50.02C77.3716 50.02 77.9596 50.16 78.4796 50.44C78.9996 50.72 79.4036 51.108 79.6916 51.604C79.9876 52.1 80.1356 52.664 80.1356 53.296C80.1356 53.928 79.9876 54.496 79.6916 55C79.4036 55.496 78.9996 55.884 78.4796 56.164C77.9596 56.444 77.3716 56.584 76.7156 56.584ZM76.7156 55.3C77.2676 55.3 77.7236 55.116 78.0836 54.748C78.4436 54.38 78.6236 53.896 78.6236 53.296C78.6236 52.696 78.4436 52.212 78.0836 51.844C77.7236 51.476 77.2676 51.292 76.7156 51.292C76.1636 51.292 75.7076 51.476 75.3476 51.844C74.9956 52.212 74.8196 52.696 74.8196 53.296C74.8196 53.896 74.9956 54.38 75.3476 54.748C75.7076 55.116 76.1636 55.3 76.7156 55.3ZM85.2059 50.02C86.0139 50.02 86.6619 50.256 87.1499 50.728C87.6379 51.2 87.8819 51.9 87.8819 52.828V56.5H86.3819V53.02C86.3819 52.46 86.2499 52.04 85.9859 51.76C85.7219 51.472 85.3459 51.328 84.8579 51.328C84.3059 51.328 83.8699 51.496 83.5499 51.832C83.2299 52.16 83.0699 52.636 83.0699 53.26V56.5H81.5699V50.092H82.9979V50.92C83.2459 50.624 83.5579 50.4 83.9339 50.248C84.3099 50.096 84.7339 50.02 85.2059 50.02ZM95.8674 53.332C95.8674 53.436 95.8594 53.584 95.8434 53.776H90.8154C90.9034 54.248 91.1314 54.624 91.4994 54.904C91.8754 55.176 92.3394 55.312 92.8914 55.312C93.5954 55.312 94.1754 55.08 94.6314 54.616L95.4354 55.54C95.1474 55.884 94.7834 56.144 94.3434 56.32C93.9034 56.496 93.4074 56.584 92.8554 56.584C92.1514 56.584 91.5314 56.444 90.9954 56.164C90.4594 55.884 90.0434 55.496 89.7474 55C89.4594 54.496 89.3154 53.928 89.3154 53.296C89.3154 52.672 89.4554 52.112 89.7354 51.616C90.0234 51.112 90.4194 50.72 90.9234 50.44C91.4274 50.16 91.9954 50.02 92.6274 50.02C93.2514 50.02 93.8074 50.16 94.2954 50.44C94.7914 50.712 95.1754 51.1 95.4474 51.604C95.7274 52.1 95.8674 52.676 95.8674 53.332ZM92.6274 51.22C92.1474 51.22 91.7394 51.364 91.4034 51.652C91.0754 51.932 90.8754 52.308 90.8034 52.78H94.4394C94.3754 52.316 94.1794 51.94 93.8514 51.652C93.5234 51.364 93.1154 51.22 92.6274 51.22ZM99.2882 56.584C98.7682 56.584 98.2602 56.516 97.7642 56.38C97.2682 56.244 96.8722 56.072 96.5762 55.864L97.1522 54.724C97.4402 54.916 97.7842 55.072 98.1842 55.192C98.5922 55.304 98.9922 55.36 99.3842 55.36C100.28 55.36 100.728 55.124 100.728 54.652C100.728 54.428 100.612 54.272 100.38 54.184C100.156 54.096 99.7922 54.012 99.2882 53.932C98.7602 53.852 98.3282 53.76 97.9922 53.656C97.6642 53.552 97.3762 53.372 97.1282 53.116C96.8882 52.852 96.7682 52.488 96.7682 52.024C96.7682 51.416 97.0202 50.932 97.5242 50.572C98.0362 50.204 98.7242 50.02 99.5882 50.02C100.028 50.02 100.468 50.072 100.908 50.176C101.348 50.272 101.708 50.404 101.988 50.572L101.412 51.712C100.868 51.392 100.256 51.232 99.5762 51.232C99.1362 51.232 98.8002 51.3 98.5682 51.436C98.3442 51.564 98.2322 51.736 98.2322 51.952C98.2322 52.192 98.3522 52.364 98.5922 52.468C98.8402 52.564 99.2202 52.656 99.7322 52.744C100.244 52.824 100.664 52.916 100.992 53.02C101.32 53.124 101.6 53.3 101.832 53.548C102.072 53.796 102.192 54.148 102.192 54.604C102.192 55.204 101.932 55.684 101.412 56.044C100.892 56.404 100.184 56.584 99.2882 56.584Z" fill="#F2CF8D"/>
<line x1="110.5" y1="70" x2="110.5" y2="-1.09278e-07" stroke="#F2CF8D" stroke-width="5"/>
</svg>
