<svg width="35" height="35" viewBox="0 0 35 35" fill="none" xmlns="http://www.w3.org/2000/svg">
<path d="M17.3985 4.37427C12.7093 4.37427 8.89845 8.1851 8.89845 12.8743V16.9684C8.89845 17.8326 8.53012 19.1501 8.09095 19.8868L6.46179 22.5926C5.45595 24.2643 6.15012 26.1201 7.99179 26.7434C14.0976 28.7834 20.6851 28.7834 26.791 26.7434C28.5051 26.1768 29.256 24.1509 28.321 22.5926L26.6918 19.8868C26.2668 19.1501 25.8985 17.8326 25.8985 16.9684V12.8743C25.8985 8.19927 22.0735 4.37427 17.3985 4.37427Z" stroke="#F2CF8D" stroke-width="1.5" stroke-miterlimit="10" stroke-linecap="round"/>
<path d="M20.02 4.785C18.3068 4.29709 16.4915 4.29709 14.7783 4.785C15.1892 3.73667 16.2092 3 17.3992 3C18.5892 3 19.6092 3.73667 20.02 4.785V4.785Z" stroke="#F2CF8D" stroke-width="1.5" stroke-miterlimit="10" stroke-linecap="round" stroke-linejoin="round"/>
<path d="M21.6484 27.2534C21.6484 29.5909 19.7359 31.5034 17.3984 31.5034C16.2368 31.5034 15.1601 31.0218 14.3951 30.2568C13.5992 29.4596 13.151 28.3799 13.1484 27.2534" stroke="#F2CF8D" stroke-width="1.5" stroke-miterlimit="10"/>
</svg>
