<svg width="35" height="34" viewBox="0 0 35 34" fill="none" xmlns="http://www.w3.org/2000/svg">
<path d="M17.391 7C13.6771 7 10.6589 10.0296 10.6589 13.7576V17.0124C10.6589 17.6995 10.3672 18.7469 10.0193 19.3325L8.72902 21.4837C7.93239 22.8127 8.48218 24.2881 9.94081 24.7836C14.7767 26.4055 19.9941 26.4055 24.83 24.7836C26.1877 24.3331 26.7823 22.7226 26.0418 21.4837L24.7515 19.3325C24.4149 18.7469 24.1231 17.6995 24.1231 17.0124V13.7576C24.1231 10.0409 21.0937 7 17.391 7Z" stroke="white" stroke-width="1.5" stroke-miterlimit="10" stroke-linecap="round"/>
<path d="M19.3633 7C18.0559 6.72666 16.6706 6.72666 15.3633 7C15.6768 6.4127 16.4552 6 17.3633 6C18.2714 6 19.0498 6.4127 19.3633 7V7Z" stroke="white" stroke-width="1.5" stroke-miterlimit="10" stroke-linecap="round" stroke-linejoin="round"/>
<path d="M21.3633 25C21.3633 26.65 19.5633 28 17.3633 28C16.2699 28 15.2566 27.66 14.5366 27.12C13.7875 26.5573 13.3657 25.7952 13.3633 25" stroke="white" stroke-width="1.5" stroke-miterlimit="10"/>
</svg>
