<svg width="113" height="70" viewBox="0 0 113 70" fill="none" xmlns="http://www.w3.org/2000/svg">
<path d="M57.5206 17.9099C54.2106 17.9099 51.5206 20.5999 51.5206 23.9099V26.7999C51.5206 27.4099 51.2606 28.3399 50.9506 28.8599L49.8006 30.7699C49.0906 31.9499 49.5806 33.2599 50.8806 33.6999C55.1906 35.1399 59.8406 35.1399 64.1506 33.6999C65.3606 33.2999 65.8906 31.8699 65.2306 30.7699L64.0806 28.8599C63.7806 28.3399 63.5206 27.4099 63.5206 26.7999V23.9099C63.5206 20.6099 60.8206 17.9099 57.5206 17.9099Z" stroke="white" stroke-width="1.5" stroke-miterlimit="10" stroke-linecap="round"/>
<path d="M59.3699 18.1999C58.1606 17.8555 56.8792 17.8555 55.6699 18.1999C55.9599 17.4599 56.6799 16.9399 57.5199 16.9399C58.3599 16.9399 59.0799 17.4599 59.3699 18.1999V18.1999Z" stroke="white" stroke-width="1.5" stroke-miterlimit="10" stroke-linecap="round" stroke-linejoin="round"/>
<path d="M60.5195 34.0601C60.5195 35.7101 59.1695 37.0601 57.5195 37.0601C56.6995 37.0601 55.9395 36.7201 55.3995 36.1801C54.8377 35.6174 54.5213 34.8552 54.5195 34.0601" stroke="white" stroke-width="1.5" stroke-miterlimit="10"/>
<path d="M21.8186 43.1V51.5H20.5346L15.9026 45.812V51.5H14.3546V43.1H15.6386L20.2706 48.788V43.1H21.8186ZM26.8054 51.584C26.1574 51.584 25.5734 51.444 25.0534 51.164C24.5334 50.884 24.1254 50.496 23.8294 50C23.5414 49.496 23.3974 48.928 23.3974 48.296C23.3974 47.664 23.5414 47.1 23.8294 46.604C24.1254 46.108 24.5334 45.72 25.0534 45.44C25.5734 45.16 26.1574 45.02 26.8054 45.02C27.4614 45.02 28.0494 45.16 28.5694 45.44C29.0894 45.72 29.4934 46.108 29.7814 46.604C30.0774 47.1 30.2254 47.664 30.2254 48.296C30.2254 48.928 30.0774 49.496 29.7814 50C29.4934 50.496 29.0894 50.884 28.5694 51.164C28.0494 51.444 27.4614 51.584 26.8054 51.584ZM26.8054 50.3C27.3574 50.3 27.8134 50.116 28.1734 49.748C28.5334 49.38 28.7134 48.896 28.7134 48.296C28.7134 47.696 28.5334 47.212 28.1734 46.844C27.8134 46.476 27.3574 46.292 26.8054 46.292C26.2534 46.292 25.7974 46.476 25.4374 46.844C25.0854 47.212 24.9094 47.696 24.9094 48.296C24.9094 48.896 25.0854 49.38 25.4374 49.748C25.7974 50.116 26.2534 50.3 26.8054 50.3ZM35.5118 51.152C35.3358 51.296 35.1198 51.404 34.8638 51.476C34.6158 51.548 34.3518 51.584 34.0718 51.584C33.3678 51.584 32.8238 51.4 32.4398 51.032C32.0558 50.664 31.8638 50.128 31.8638 49.424V46.34H30.8078V45.14H31.8638V43.676H33.3638V45.14H35.0798V46.34H33.3638V49.388C33.3638 49.7 33.4398 49.94 33.5918 50.108C33.7438 50.268 33.9638 50.348 34.2518 50.348C34.5878 50.348 34.8678 50.26 35.0918 50.084L35.5118 51.152ZM36.7457 45.092H38.2457V51.5H36.7457V45.092ZM37.5017 44.036C37.2297 44.036 37.0017 43.952 36.8177 43.784C36.6337 43.608 36.5417 43.392 36.5417 43.136C36.5417 42.88 36.6337 42.668 36.8177 42.5C37.0017 42.324 37.2297 42.236 37.5017 42.236C37.7737 42.236 38.0017 42.32 38.1857 42.488C38.3697 42.648 38.4617 42.852 38.4617 43.1C38.4617 43.364 38.3697 43.588 38.1857 43.772C38.0097 43.948 37.7817 44.036 37.5017 44.036ZM42.8185 43.724C42.1865 43.724 41.8705 44.068 41.8705 44.756V45.14H43.6345V46.34H41.9185V51.5H40.4185V46.34H39.3625V45.14H40.4185V44.732C40.4185 44.044 40.6185 43.504 41.0185 43.112C41.4185 42.712 41.9825 42.512 42.7105 42.512C43.2865 42.512 43.7385 42.628 44.0665 42.86L43.6465 43.988C43.3905 43.812 43.1145 43.724 42.8185 43.724ZM45.6025 45.092H47.1025V51.5H45.6025V45.092ZM46.3585 44.036C46.0865 44.036 45.8585 43.952 45.6745 43.784C45.4905 43.608 45.3985 43.392 45.3985 43.136C45.3985 42.88 45.4905 42.668 45.6745 42.5C45.8585 42.324 46.0865 42.236 46.3585 42.236C46.6305 42.236 46.8585 42.32 47.0425 42.488C47.2265 42.648 47.3185 42.852 47.3185 43.1C47.3185 43.364 47.2265 43.588 47.0425 43.772C46.8665 43.948 46.6385 44.036 46.3585 44.036ZM52.0138 51.584C51.3498 51.584 50.7538 51.444 50.2258 51.164C49.6978 50.884 49.2858 50.496 48.9898 50C48.6938 49.496 48.5458 48.928 48.5458 48.296C48.5458 47.664 48.6938 47.1 48.9898 46.604C49.2858 46.108 49.6938 45.72 50.2138 45.44C50.7418 45.16 51.3418 45.02 52.0138 45.02C52.6458 45.02 53.1978 45.148 53.6698 45.404C54.1498 45.66 54.5098 46.028 54.7498 46.508L53.5978 47.18C53.4138 46.884 53.1818 46.664 52.9018 46.52C52.6298 46.368 52.3298 46.292 52.0018 46.292C51.4418 46.292 50.9778 46.476 50.6098 46.844C50.2418 47.204 50.0578 47.688 50.0578 48.296C50.0578 48.904 50.2378 49.392 50.5978 49.76C50.9658 50.12 51.4338 50.3 52.0018 50.3C52.3298 50.3 52.6298 50.228 52.9018 50.084C53.1818 49.932 53.4138 49.708 53.5978 49.412L54.7498 50.084C54.5018 50.564 54.1378 50.936 53.6578 51.2C53.1858 51.456 52.6378 51.584 52.0138 51.584ZM58.4945 45.02C59.4385 45.02 60.1585 45.248 60.6545 45.704C61.1585 46.152 61.4105 46.832 61.4105 47.744V51.5H59.9945V50.72C59.8105 51 59.5465 51.216 59.2025 51.368C58.8665 51.512 58.4585 51.584 57.9785 51.584C57.4985 51.584 57.0785 51.504 56.7185 51.344C56.3585 51.176 56.0785 50.948 55.8785 50.66C55.6865 50.364 55.5905 50.032 55.5905 49.664C55.5905 49.088 55.8025 48.628 56.2265 48.284C56.6585 47.932 57.3345 47.756 58.2545 47.756H59.9105V47.66C59.9105 47.212 59.7745 46.868 59.5025 46.628C59.2385 46.388 58.8425 46.268 58.3145 46.268C57.9545 46.268 57.5985 46.324 57.2465 46.436C56.9025 46.548 56.6105 46.704 56.3705 46.904L55.7825 45.812C56.1185 45.556 56.5225 45.36 56.9945 45.224C57.4665 45.088 57.9665 45.02 58.4945 45.02ZM58.2905 50.492C58.6665 50.492 58.9985 50.408 59.2865 50.24C59.5825 50.064 59.7905 49.816 59.9105 49.496V48.752H58.3625C57.4985 48.752 57.0665 49.036 57.0665 49.604C57.0665 49.876 57.1745 50.092 57.3905 50.252C57.6065 50.412 57.9065 50.492 58.2905 50.492ZM66.3342 51.584C65.6702 51.584 65.0742 51.444 64.5462 51.164C64.0182 50.884 63.6062 50.496 63.3102 50C63.0142 49.496 62.8662 48.928 62.8662 48.296C62.8662 47.664 63.0142 47.1 63.3102 46.604C63.6062 46.108 64.0142 45.72 64.5342 45.44C65.0622 45.16 65.6622 45.02 66.3342 45.02C66.9662 45.02 67.5182 45.148 67.9902 45.404C68.4702 45.66 68.8302 46.028 69.0702 46.508L67.9182 47.18C67.7342 46.884 67.5022 46.664 67.2222 46.52C66.9502 46.368 66.6502 46.292 66.3222 46.292C65.7622 46.292 65.2982 46.476 64.9302 46.844C64.5622 47.204 64.3782 47.688 64.3782 48.296C64.3782 48.904 64.5582 49.392 64.9182 49.76C65.2862 50.12 65.7542 50.3 66.3222 50.3C66.6502 50.3 66.9502 50.228 67.2222 50.084C67.5022 49.932 67.7342 49.708 67.9182 49.412L69.0702 50.084C68.8222 50.564 68.4582 50.936 67.9782 51.2C67.5062 51.456 66.9582 51.584 66.3342 51.584ZM70.3668 45.092H71.8668V51.5H70.3668V45.092ZM71.1228 44.036C70.8508 44.036 70.6228 43.952 70.4388 43.784C70.2548 43.608 70.1628 43.392 70.1628 43.136C70.1628 42.88 70.2548 42.668 70.4388 42.5C70.6228 42.324 70.8508 42.236 71.1228 42.236C71.3948 42.236 71.6228 42.32 71.8068 42.488C71.9908 42.648 72.0828 42.852 72.0828 43.1C72.0828 43.364 71.9908 43.588 71.8068 43.772C71.6308 43.948 71.4028 44.036 71.1228 44.036ZM76.7156 51.584C76.0676 51.584 75.4836 51.444 74.9636 51.164C74.4436 50.884 74.0356 50.496 73.7396 50C73.4516 49.496 73.3076 48.928 73.3076 48.296C73.3076 47.664 73.4516 47.1 73.7396 46.604C74.0356 46.108 74.4436 45.72 74.9636 45.44C75.4836 45.16 76.0676 45.02 76.7156 45.02C77.3716 45.02 77.9596 45.16 78.4796 45.44C78.9996 45.72 79.4036 46.108 79.6916 46.604C79.9876 47.1 80.1356 47.664 80.1356 48.296C80.1356 48.928 79.9876 49.496 79.6916 50C79.4036 50.496 78.9996 50.884 78.4796 51.164C77.9596 51.444 77.3716 51.584 76.7156 51.584ZM76.7156 50.3C77.2676 50.3 77.7236 50.116 78.0836 49.748C78.4436 49.38 78.6236 48.896 78.6236 48.296C78.6236 47.696 78.4436 47.212 78.0836 46.844C77.7236 46.476 77.2676 46.292 76.7156 46.292C76.1636 46.292 75.7076 46.476 75.3476 46.844C74.9956 47.212 74.8196 47.696 74.8196 48.296C74.8196 48.896 74.9956 49.38 75.3476 49.748C75.7076 50.116 76.1636 50.3 76.7156 50.3ZM85.2059 45.02C86.0139 45.02 86.6619 45.256 87.1499 45.728C87.6379 46.2 87.8819 46.9 87.8819 47.828V51.5H86.3819V48.02C86.3819 47.46 86.2499 47.04 85.9859 46.76C85.7219 46.472 85.3459 46.328 84.8579 46.328C84.3059 46.328 83.8699 46.496 83.5499 46.832C83.2299 47.16 83.0699 47.636 83.0699 48.26V51.5H81.5699V45.092H82.9979V45.92C83.2459 45.624 83.5579 45.4 83.9339 45.248C84.3099 45.096 84.7339 45.02 85.2059 45.02ZM95.8674 48.332C95.8674 48.436 95.8594 48.584 95.8434 48.776H90.8154C90.9034 49.248 91.1314 49.624 91.4994 49.904C91.8754 50.176 92.3394 50.312 92.8914 50.312C93.5954 50.312 94.1754 50.08 94.6314 49.616L95.4354 50.54C95.1474 50.884 94.7834 51.144 94.3434 51.32C93.9034 51.496 93.4074 51.584 92.8554 51.584C92.1514 51.584 91.5314 51.444 90.9954 51.164C90.4594 50.884 90.0434 50.496 89.7474 50C89.4594 49.496 89.3154 48.928 89.3154 48.296C89.3154 47.672 89.4554 47.112 89.7354 46.616C90.0234 46.112 90.4194 45.72 90.9234 45.44C91.4274 45.16 91.9954 45.02 92.6274 45.02C93.2514 45.02 93.8074 45.16 94.2954 45.44C94.7914 45.712 95.1754 46.1 95.4474 46.604C95.7274 47.1 95.8674 47.676 95.8674 48.332ZM92.6274 46.22C92.1474 46.22 91.7394 46.364 91.4034 46.652C91.0754 46.932 90.8754 47.308 90.8034 47.78H94.4394C94.3754 47.316 94.1794 46.94 93.8514 46.652C93.5234 46.364 93.1154 46.22 92.6274 46.22ZM99.2882 51.584C98.7682 51.584 98.2602 51.516 97.7642 51.38C97.2682 51.244 96.8722 51.072 96.5762 50.864L97.1522 49.724C97.4402 49.916 97.7842 50.072 98.1842 50.192C98.5922 50.304 98.9922 50.36 99.3842 50.36C100.28 50.36 100.728 50.124 100.728 49.652C100.728 49.428 100.612 49.272 100.38 49.184C100.156 49.096 99.7922 49.012 99.2882 48.932C98.7602 48.852 98.3282 48.76 97.9922 48.656C97.6642 48.552 97.3762 48.372 97.1282 48.116C96.8882 47.852 96.7682 47.488 96.7682 47.024C96.7682 46.416 97.0202 45.932 97.5242 45.572C98.0362 45.204 98.7242 45.02 99.5882 45.02C100.028 45.02 100.468 45.072 100.908 45.176C101.348 45.272 101.708 45.404 101.988 45.572L101.412 46.712C100.868 46.392 100.256 46.232 99.5762 46.232C99.1362 46.232 98.8002 46.3 98.5682 46.436C98.3442 46.564 98.2322 46.736 98.2322 46.952C98.2322 47.192 98.3522 47.364 98.5922 47.468C98.8402 47.564 99.2202 47.656 99.7322 47.744C100.244 47.824 100.664 47.916 100.992 48.02C101.32 48.124 101.6 48.3 101.832 48.548C102.072 48.796 102.192 49.148 102.192 49.604C102.192 50.204 101.932 50.684 101.412 51.044C100.892 51.404 100.184 51.584 99.2882 51.584Z" fill="white"/>
</svg>
