<svg width="22" height="22" viewBox="0 0 22 22" fill="none" xmlns="http://www.w3.org/2000/svg">
<path d="M15.4097 2.99975C17.3497 2.99975 18.9097 4.56975 18.9097 6.49975C18.9097 8.38975 17.4097 9.92975 15.5397 9.99975C15.4534 9.98974 15.3661 9.98974 15.2797 9.99975M17.3397 18.9997C18.0597 18.8497 18.7397 18.5597 19.2997 18.1297C20.8597 16.9597 20.8597 15.0297 19.2997 13.8597C18.7497 13.4397 18.0797 13.1597 17.3697 12.9997M8.15973 9.86975C8.05973 9.85975 7.93973 9.85975 7.82973 9.86975C6.68193 9.83078 5.59437 9.34658 4.79736 8.51971C4.00034 7.69283 3.55647 6.5882 3.55973 5.43975C3.55973 2.98975 5.53973 0.999746 7.99973 0.999746C9.17596 0.978529 10.3124 1.42544 11.1592 2.24216C12.0059 3.05888 12.4935 4.17851 12.5147 5.35475C12.5359 6.53098 12.089 7.66747 11.2723 8.5142C10.4556 9.36092 9.33596 9.84853 8.15973 9.86975ZM3.15973 13.5597C0.739727 15.1797 0.739727 17.8197 3.15973 19.4297C5.90973 21.2697 10.4197 21.2697 13.1697 19.4297C15.5897 17.8097 15.5897 15.1697 13.1697 13.5597C10.4297 11.7297 5.91973 11.7297 3.15973 13.5597V13.5597Z" stroke="black" stroke-width="1.5" stroke-linecap="round" stroke-linejoin="round"/>
</svg>
