<svg width="23" height="23" viewBox="0 0 23 23" fill="none" xmlns="http://www.w3.org/2000/svg">
<path d="M21.7337 21.5L19.7337 19.5M11.2337 20.5C12.4813 20.5 13.7166 20.2543 14.8692 19.7769C16.0218 19.2994 17.0691 18.5997 17.9512 17.7175C18.8334 16.8354 19.5331 15.7881 20.0106 14.6355C20.488 13.4829 20.7337 12.2476 20.7337 11C20.7337 9.75244 20.488 8.5171 20.0106 7.36451C19.5331 6.21191 18.8334 5.16464 17.9512 4.28249C17.0691 3.40033 16.0218 2.70056 14.8692 2.22314C13.7166 1.74572 12.4813 1.5 11.2337 1.5C8.71415 1.5 6.29778 2.50089 4.51619 4.28249C2.73459 6.06408 1.7337 8.48044 1.7337 11C1.7337 13.5196 2.73459 15.9359 4.51619 17.7175C6.29778 19.4991 8.71415 20.5 11.2337 20.5V20.5Z" stroke="white" stroke-width="1.5" stroke-linecap="round" stroke-linejoin="round"/>
</svg>
