<svg width="34" height="35" viewBox="0 0 34 35" fill="none" xmlns="http://www.w3.org/2000/svg">
<rect y="0.625" width="34" height="34" rx="17" fill="url(#paint0_linear_731_3219)"/>
<g clip-path="url(#clip0_731_3219)">
<path d="M20 12.625H18.5C18.5 11.6304 18.1049 10.6766 17.4017 9.97335C16.6984 9.27009 15.7446 8.875 14.75 8.875C13.7554 8.875 12.8016 9.27009 12.0983 9.97335C11.3951 10.6766 11 11.6304 11 12.625H9.5C9.5 11.2326 10.0531 9.89726 11.0377 8.91269C12.0223 7.92812 13.3576 7.375 14.75 7.375C16.1424 7.375 17.4777 7.92812 18.4623 8.91269C19.4469 9.89726 20 11.2326 20 12.625Z" fill="white"/>
<path d="M23.75 17.875C23.3625 17.8764 22.9823 17.9799 22.6475 18.175C22.4453 17.8543 22.1653 17.5899 21.8336 17.4063C21.5019 17.2227 21.1291 17.126 20.75 17.125C20.3625 17.1264 19.9823 17.2299 19.6475 17.425C19.3746 16.9956 18.9643 16.6714 18.4835 16.5053C18.0027 16.3391 17.4797 16.3408 17 16.51V12.625C17 12.0283 16.7629 11.456 16.341 11.034C15.919 10.6121 15.3467 10.375 14.75 10.375C14.1533 10.375 13.581 10.6121 13.159 11.034C12.7371 11.456 12.5 12.0283 12.5 12.625V20.95L10.8275 19.81C10.4441 19.5245 9.97804 19.3717 9.5 19.375C9.05373 19.3739 8.61722 19.5055 8.24596 19.7532C7.8747 20.0008 7.58546 20.3532 7.41501 20.7657C7.24457 21.1781 7.20063 21.6319 7.28877 22.0694C7.37691 22.5069 7.59315 22.9082 7.91 23.2225L13.91 28.6975C14.7594 29.4578 15.86 29.8772 17 29.875H20.75C22.1424 29.875 23.4777 29.3219 24.4623 28.3373C25.4469 27.3527 26 26.0174 26 24.625V20.125C26 19.5283 25.7629 18.956 25.341 18.534C24.919 18.1121 24.3467 17.875 23.75 17.875ZM24.5 24.625C24.5 25.6196 24.1049 26.5734 23.4017 27.2766C22.6984 27.9799 21.7446 28.375 20.75 28.375H17C16.2419 28.3842 15.5063 28.1176 14.93 27.625L8.9675 22.15C8.82894 22.0103 8.75083 21.8218 8.75 21.625C8.75 21.4857 8.78879 21.3492 8.86201 21.2307C8.93524 21.1122 9.04001 21.0165 9.16459 20.9542C9.28917 20.8919 9.42863 20.8655 9.56735 20.878C9.70608 20.8905 9.83857 20.9414 9.95 21.025L14 23.8V12.625C14 12.4261 14.079 12.2353 14.2197 12.0947C14.3603 11.954 14.5511 11.875 14.75 11.875C14.9489 11.875 15.1397 11.954 15.2803 12.0947C15.421 12.2353 15.5 12.4261 15.5 12.625V20.875H17V18.625C17 18.4261 17.079 18.2353 17.2197 18.0947C17.3603 17.954 17.5511 17.875 17.75 17.875C17.9489 17.875 18.1397 17.954 18.2803 18.0947C18.421 18.2353 18.5 18.4261 18.5 18.625V20.875H20V19.375C20 19.1761 20.079 18.9853 20.2197 18.8447C20.3603 18.704 20.5511 18.625 20.75 18.625C20.9489 18.625 21.1397 18.704 21.2803 18.8447C21.421 18.9853 21.5 19.1761 21.5 19.375V20.875H23V20.125C23 19.9261 23.079 19.7353 23.2197 19.5947C23.3603 19.454 23.5511 19.375 23.75 19.375C23.9489 19.375 24.1397 19.454 24.2803 19.5947C24.421 19.7353 24.5 19.9261 24.5 20.125V24.625Z" fill="white"/>
</g>
<defs>
<linearGradient id="paint0_linear_731_3219" x1="19.6759" y1="-2.98106" x2="-4.58073" y2="3.27261" gradientUnits="userSpaceOnUse">
<stop stop-color="#F9A811"/>
<stop offset="1" stop-color="#B97900"/>
</linearGradient>
<clipPath id="clip0_731_3219">
<rect width="24" height="24" fill="white" transform="translate(5 6.625)"/>
</clipPath>
</defs>
</svg>
