<svg width="34" height="34" viewBox="0 0 34 34" fill="none" xmlns="http://www.w3.org/2000/svg">
<rect width="34" height="34" rx="17" fill="url(#paint0_linear_701_2475)"/>
<path d="M8.72 12.2H4.08V10H15.96V12.2H11.32V24H8.72V12.2ZM23.6713 10C24.8846 10 25.9379 10.2 26.8313 10.6C27.7379 11 28.4313 11.5733 28.9113 12.32C29.3913 13.0667 29.6313 13.9533 29.6313 14.98C29.6313 15.9933 29.3913 16.88 28.9113 17.64C28.4313 18.3867 27.7379 18.96 26.8313 19.36C25.9379 19.76 24.8846 19.96 23.6713 19.96H20.5113V24H17.9113V10H23.6713ZM23.5513 17.76C24.6846 17.76 25.5446 17.52 26.1312 17.04C26.7179 16.56 27.0113 15.8733 27.0113 14.98C27.0113 14.0867 26.7179 13.4 26.1312 12.92C25.5446 12.44 24.6846 12.2 23.5513 12.2H20.5113V17.76H23.5513Z" fill="white"/>
<defs>
<linearGradient id="paint0_linear_701_2475" x1="19.6759" y1="-3.60606" x2="-4.58073" y2="2.64761" gradientUnits="userSpaceOnUse">
<stop stop-color="#F9A811"/>
<stop offset="1" stop-color="#B97900"/>
</linearGradient>
</defs>
</svg>
