<svg width="25" height="25" viewBox="0 0 25 25" fill="none" xmlns="http://www.w3.org/2000/svg">
<path d="M18.8958 22.5209C17.9791 22.7917 16.8958 22.9167 15.625 22.9167H9.37496C8.10413 22.9167 7.02079 22.7917 6.10413 22.5209C6.33329 19.8125 9.11454 17.6771 12.5 17.6771C15.8854 17.6771 18.6666 19.8125 18.8958 22.5209V22.5209Z" stroke="white" stroke-width="1.5" stroke-linecap="round" stroke-linejoin="round"/>
<path d="M15.625 2.08337H9.37504C4.16671 2.08337 2.08337 4.16671 2.08337 9.37504V15.625C2.08337 19.5625 3.27087 21.7188 6.10421 22.5209C6.33337 19.8125 9.11462 17.6771 12.5 17.6771C15.8855 17.6771 18.6667 19.8125 18.8959 22.5209C21.7292 21.7188 22.9167 19.5625 22.9167 15.625V9.37504C22.9167 4.16671 20.8334 2.08337 15.625 2.08337ZM12.5 14.7605C10.4375 14.7605 8.77087 13.0834 8.77087 11.0209C8.77087 8.95837 10.4375 7.29171 12.5 7.29171C14.5625 7.29171 16.2292 8.95837 16.2292 11.0209C16.2292 13.0834 14.5625 14.7605 12.5 14.7605Z" stroke="white" stroke-width="1.5" stroke-linecap="round" stroke-linejoin="round"/>
<path d="M16.2292 11.0208C16.2292 13.0833 14.5625 14.7604 12.5 14.7604C10.4375 14.7604 8.77087 13.0833 8.77087 11.0208C8.77087 8.95829 10.4375 7.29163 12.5 7.29163C14.5625 7.29163 16.2292 8.95829 16.2292 11.0208Z" stroke="white" stroke-width="1.5" stroke-linecap="round" stroke-linejoin="round"/>
</svg>
