<svg width="68" height="69" viewBox="0 0 68 69" fill="none" xmlns="http://www.w3.org/2000/svg">
<ellipse cx="34" cy="33" rx="34" ry="33" fill="white"/>
<path d="M13.9999 16C16.5 28.5 13 29.5 27.1318 24.8838" stroke="#F2CF8D" stroke-width="2"/>
<path d="M23.4691 49.0503C21.3072 47.2961 19.3866 45.3462 17.7073 43.2006C16.0729 41.0502 14.93 39.0307 14.2784 37.1421L22.3132 33.0297C22.9709 34.7585 23.8886 36.4715 25.0662 38.1689C26.2641 39.8414 27.5712 41.2524 28.9876 42.4016C30.2052 43.3896 31.1656 43.9835 31.8689 44.1833C32.5923 44.3582 33.1456 44.2096 33.5287 43.7375C33.9723 43.1908 33.9571 42.4985 33.4831 41.6607C33.034 40.8429 32.1578 39.6374 30.8544 38.0441C29.1845 35.9885 27.8701 34.1802 26.9114 32.6193C25.9728 31.0335 25.4501 29.2907 25.3433 27.3908C25.2567 25.4661 25.9796 23.5595 27.512 21.671C28.8427 20.031 30.5122 18.9131 32.5204 18.3173C34.5286 17.7215 36.7522 17.7744 39.1912 18.476C41.6551 19.1977 44.1916 20.6172 46.8007 22.7343C48.5898 24.186 50.1803 25.8063 51.5723 27.5951C53.0092 29.3792 54.0837 31.1783 54.7958 32.9924L46.9777 37.2188C45.4667 33.8499 43.5682 31.2379 41.2821 29.3829C39.0209 27.5481 37.4467 27.1774 36.5595 28.2707C36.1361 28.7925 36.149 29.4623 36.5981 30.28C37.0674 31.0729 37.9513 32.2435 39.25 33.7918C40.9355 35.7775 42.2599 37.5734 43.2233 39.1793C44.2069 40.7604 44.7521 42.5009 44.8589 44.4007C44.9905 46.3208 44.2901 48.225 42.7577 50.1135C41.427 51.7535 39.7575 52.8714 37.7493 53.4672C35.7613 54.0382 33.5252 53.9752 31.0412 53.2783C28.6022 52.5767 26.0782 51.1674 23.4691 49.0503Z" fill="black"/>
<path d="M38.7252 23.9682C38.8977 24.6974 38.4462 25.4278 37.7175 25.6001C36.9883 25.7725 36.258 25.321 36.0856 24.5924C35.9132 23.8631 36.3647 23.1328 37.0933 22.9605C37.822 22.7882 38.5529 23.2395 38.7252 23.9682Z" fill="#129AD6"/>
<path d="M43.4109 22.8601C43.5833 23.5894 43.1319 24.3197 42.4032 24.492C41.6739 24.6645 40.9436 24.213 40.7713 23.4844C40.5988 22.7551 41.0503 22.0248 41.779 21.8524C42.5076 21.6801 43.2386 22.1315 43.4109 22.8601Z" fill="#E03339"/>
<path d="M40.6603 21.1297C40.8328 21.859 40.3813 22.5893 39.6526 22.7616C38.9234 22.9341 38.193 22.4826 38.0207 21.7539C37.8483 21.0247 38.2998 20.2944 39.0284 20.122C39.7569 19.9491 40.4879 20.4005 40.6603 21.1297Z" fill="#FCDD10"/>
<path d="M41.718 25.6024C41.8905 26.3317 41.439 27.062 40.7103 27.2343C39.9811 27.4068 39.2508 26.9553 39.0784 26.2267C38.906 25.4974 39.3575 24.7671 40.0861 24.5948C40.8147 24.4218 41.5456 24.8732 41.718 25.6024Z" fill="#89C94E"/>
<circle cx="30.3183" cy="42.2877" r="4.9" transform="rotate(-0.457124 30.3183 42.2877)" fill="black" stroke="white" stroke-width="0.2"/>
<path d="M38.7252 23.9682C38.8977 24.6974 38.4462 25.4278 37.7175 25.6001C36.9883 25.7725 36.258 25.321 36.0856 24.5924C35.9132 23.8631 36.3647 23.1328 37.0933 22.9605C37.822 22.7882 38.5529 23.2395 38.7252 23.9682Z" fill="#129AD6"/>
<path d="M43.4109 22.8601C43.5833 23.5894 43.1319 24.3197 42.4032 24.492C41.6739 24.6645 40.9436 24.213 40.7713 23.4844C40.5988 22.7551 41.0503 22.0248 41.779 21.8524C42.5076 21.6801 43.2386 22.1315 43.4109 22.8601Z" fill="#E03339"/>
<path d="M40.6603 21.1297C40.8328 21.859 40.3813 22.5893 39.6526 22.7616C38.9234 22.9341 38.193 22.4826 38.0207 21.7539C37.8483 21.0247 38.2998 20.2944 39.0284 20.122C39.7569 19.9491 40.4879 20.4005 40.6603 21.1297Z" fill="#F2CF8D"/>
<path d="M41.718 25.6024C41.8905 26.3317 41.439 27.062 40.7103 27.2343C39.9811 27.4068 39.2508 26.9553 39.0784 26.2267C38.906 25.4974 39.3575 24.7671 40.0861 24.5948C40.8147 24.4218 41.5456 24.8732 41.718 25.6024Z" fill="#89C94E"/>
<circle cx="30.3184" cy="42.2877" r="4.9" transform="rotate(-0.457124 30.3184 42.2877)" fill="black" stroke="white" stroke-width="0.2"/>
<path d="M27.145 40.1724C26.2001 41.5979 26.355 43.4379 27.4068 44.6822C27.631 44.95 27.8968 45.1884 28.2024 45.3909C28.6694 45.7005 29.1813 45.8926 29.7036 45.9723C31.1107 46.1907 32.5843 45.5955 33.4218 44.3322C34.3639 42.9109 34.2114 41.0764 33.1656 39.8322C32.9395 39.5611 32.6705 39.3186 32.3621 39.1142C30.632 37.9683 28.2916 38.4428 27.145 40.1724ZM32.4646 42.6958C32.6874 42.8435 32.7479 43.1421 32.6002 43.3648L32.209 43.9551C32.0622 44.1764 31.7636 44.237 31.5409 44.0893L30.5302 43.4193L29.8593 44.4314C29.7126 44.6527 29.414 44.7133 29.1913 44.5656L28.601 44.1744C28.3797 44.0276 28.3191 43.729 28.4659 43.5077L29.1367 42.4956L28.1247 41.8247C27.9033 41.678 27.8428 41.3794 27.9895 41.1581L28.3808 40.5678C28.5285 40.3451 28.8271 40.2845 29.0484 40.4313L30.0605 41.1021L30.7304 40.0915C30.8781 39.8687 31.1767 39.8082 31.398 39.9549L31.9883 40.3462C32.211 40.4938 32.2716 40.7925 32.1239 41.0152L31.454 42.0259L32.4646 42.6958Z" fill="white"/>
<path d="M12.5385 12.2947C12.26 12.3383 12.0679 12.6017 12.1115 12.8802L12.4286 14.9051L12.1755 14.9447L12.334 15.9572L13.505 16.8111L13.5843 17.3173L15.103 17.0795L15.0237 16.5732L15.8776 15.4022L15.7191 14.3898L15.466 14.4294L15.1489 12.4045C15.1053 12.1261 14.8443 11.9336 14.5634 11.9776M12.6177 12.8009L14.6426 12.4838L14.9597 14.5087L12.9348 14.8258M12.9898 13.5206L13.069 14.0268L13.5753 13.9475L13.496 13.4413M14.0022 13.362L14.0815 13.8683L14.5877 13.789L14.5084 13.2828L14.0022 13.362Z" fill="#F2CF8D"/>
</svg>
