<svg width="16" height="16" viewBox="0 0 16 16" fill="none" xmlns="http://www.w3.org/2000/svg">
<path d="M1.99333 4.92C1.91572 4.9974 1.85415 5.08936 1.81214 5.19061C1.77013 5.29185 1.7485 5.40038 1.7485 5.51C1.7485 5.61961 1.77013 5.72814 1.81214 5.82939C1.85415 5.93063 1.91572 6.02259 1.99333 6.1L7.53333 11.64C7.595 11.7018 7.66826 11.7508 7.74891 11.7843C7.82956 11.8177 7.91601 11.835 8.00333 11.835C8.09064 11.835 8.17709 11.8177 8.25774 11.7843C8.33839 11.7508 8.41165 11.7018 8.47333 11.64L14.0133 6.1C14.34 5.77333 14.34 5.24666 14.0133 4.92C13.6867 4.59333 13.16 4.59333 12.8333 4.92L7.99999 9.74666L3.16666 4.91333C2.84666 4.59333 2.31333 4.59333 1.99333 4.92Z" fill="#F8F8F8"/>
</svg>
