<svg width="24" height="24" viewBox="0 0 24 24" fill="none" xmlns="http://www.w3.org/2000/svg">
<path d="M19.5469 17.9531C19.6517 18.0576 19.735 18.1818 19.7917 18.3186C19.8485 18.4553 19.8777 18.6019 19.8777 18.75C19.8777 18.8981 19.8485 19.0447 19.7917 19.1814C19.735 19.3182 19.6517 19.4424 19.5469 19.5469C19.3346 19.7564 19.0483 19.8739 18.75 19.8739C18.4517 19.8739 18.1654 19.7564 17.9531 19.5469L12 13.5937L6.04686 19.5469C5.83456 19.7564 5.54828 19.8739 5.24999 19.8739C4.95169 19.8739 4.66541 19.7564 4.45311 19.5469C4.34823 19.4424 4.26501 19.3182 4.20823 19.1814C4.15145 19.0447 4.12222 18.8981 4.12222 18.75C4.12222 18.6019 4.15145 18.4553 4.20823 18.3186C4.26501 18.1818 4.34823 18.0576 4.45311 17.9531L10.4062 12L4.45311 6.04687C4.24177 5.83553 4.12303 5.54888 4.12303 5.25C4.12303 5.10201 4.15218 4.95546 4.20882 4.81873C4.26545 4.682 4.34846 4.55777 4.45311 4.45312C4.55776 4.34848 4.68199 4.26547 4.81872 4.20883C4.95545 4.1522 5.10199 4.12305 5.24999 4.12305C5.54887 4.12305 5.83552 4.24178 6.04686 4.45312L12 10.4062L17.9531 4.45312C18.1645 4.24178 18.4511 4.12305 18.75 4.12305C19.0489 4.12305 19.3355 4.24178 19.5469 4.45312C19.7582 4.66447 19.8769 4.95111 19.8769 5.25C19.8769 5.54888 19.7582 5.83553 19.5469 6.04687L13.5937 12L19.5469 17.9531Z" fill="#FF1E1E"/>
</svg>
