<svg width="24" height="24" viewBox="0 0 24 24" fill="none" xmlns="http://www.w3.org/2000/svg">
<path d="M19.5469 17.9531C19.6518 18.0576 19.735 18.1818 19.7918 18.3186C19.8485 18.4553 19.8778 18.6019 19.8778 18.75C19.8778 18.8981 19.8485 19.0447 19.7918 19.1814C19.735 19.3182 19.6518 19.4424 19.5469 19.5469C19.3346 19.7564 19.0483 19.8739 18.75 19.8739C18.4517 19.8739 18.1654 19.7564 17.9531 19.5469L12 13.5937L6.04689 19.5469C5.8346 19.7564 5.54831 19.8739 5.25002 19.8739C4.95172 19.8739 4.66544 19.7564 4.45314 19.5469C4.34826 19.4424 4.26504 19.3182 4.20826 19.1814C4.15148 19.0447 4.12225 18.8981 4.12225 18.75C4.12225 18.6019 4.15148 18.4553 4.20826 18.3186C4.26504 18.1818 4.34826 18.0576 4.45314 17.9531L10.4063 12L4.45314 6.04687C4.2418 5.83553 4.12306 5.54888 4.12306 5.25C4.12306 5.10201 4.15221 4.95546 4.20885 4.81873C4.26548 4.682 4.34849 4.55777 4.45314 4.45312C4.55779 4.34848 4.68202 4.26547 4.81875 4.20883C4.95548 4.1522 5.10202 4.12305 5.25002 4.12305C5.5489 4.12305 5.83555 4.24178 6.04689 4.45312L12 10.4062L17.9531 4.45312C18.1645 4.24178 18.4511 4.12305 18.75 4.12305C19.0489 4.12305 19.3355 4.24178 19.5469 4.45312C19.7582 4.66447 19.877 4.95111 19.877 5.25C19.877 5.54888 19.7582 5.83553 19.5469 6.04687L13.5938 12L19.5469 17.9531Z" fill="#222222"/>
</svg>
